<svg xmlns="http://www.w3.org/2000/svg" viewBox="0 0 780 200" fill="none">
  <defs>
    <radialGradient id="lwood" cx="38%" cy="32%" r="78%">
      <stop offset="0" stop-color="#9a6e3a"/>
      <stop offset="55%" stop-color="#5e4123"/>
      <stop offset="100%" stop-color="#2a1c0e"/>
    </radialGradient>
    <linearGradient id="lgold" x1="0" y1="0" x2="0" y2="1">
      <stop offset="0" stop-color="#f3dc86"/>
      <stop offset="50%" stop-color="#c9a227"/>
      <stop offset="1" stop-color="#8a6d1d"/>
    </linearGradient>
    <radialGradient id="lblack" cx="35%" cy="30%" r="78%">
      <stop offset="0" stop-color="#5c5c5c"/>
      <stop offset="45%" stop-color="#1b1b1b"/>
      <stop offset="100%" stop-color="#000000"/>
    </radialGradient>
    <radialGradient id="lwhite" cx="35%" cy="30%" r="82%">
      <stop offset="0" stop-color="#ffffff"/>
      <stop offset="70%" stop-color="#ece6d8"/>
      <stop offset="100%" stop-color="#c7bda4"/>
    </radialGradient>
  </defs>

  <!-- Emblem: a wood roundel holding a five-in-a-row diagonal of stones -->
  <circle cx="100" cy="100" r="88" fill="url(#lwood)" stroke="url(#lgold)" stroke-width="6"/>
  <circle cx="100" cy="100" r="76" fill="none" stroke="#e8c547" stroke-width="1" opacity="0.3"/>
  <g stroke="#241708" stroke-width="2" opacity="0.8" stroke-linecap="round">
    <line x1="56" y1="56" x2="144" y2="56"/>
    <line x1="56" y1="78" x2="144" y2="78"/>
    <line x1="56" y1="100" x2="144" y2="100"/>
    <line x1="56" y1="122" x2="144" y2="122"/>
    <line x1="56" y1="144" x2="144" y2="144"/>
    <line x1="56" y1="56" x2="56" y2="144"/>
    <line x1="78" y1="56" x2="78" y2="144"/>
    <line x1="100" y1="56" x2="100" y2="144"/>
    <line x1="122" y1="56" x2="122" y2="144"/>
    <line x1="144" y1="56" x2="144" y2="144"/>
  </g>
  <!-- Diagonal five: alternating black / white stones -->
  <circle cx="56" cy="144" r="11" fill="url(#lblack)"/>
  <circle cx="78" cy="122" r="11" fill="url(#lwhite)"/>
  <circle cx="100" cy="100" r="11" fill="url(#lblack)"/>
  <circle cx="122" cy="78" r="11" fill="url(#lwhite)"/>
  <circle cx="144" cy="56" r="11" fill="url(#lblack)"/>

  <!-- Wordmark -->
  <text x="216" y="92" font-family="Cinzel, Georgia, 'Times New Roman', serif" font-size="86" font-weight="700" letter-spacing="8" fill="url(#lgold)">ROW</text>
  <text x="218" y="142" font-family="Cinzel, Georgia, serif" font-size="36" font-weight="600" letter-spacing="17" fill="#f5ecd6">DAWGS</text>
</svg>
