<svg xmlns="http://www.w3.org/2000/svg" width="480" height="480" viewBox="0 0 480 480" fill="none">
  <defs>
    <radialGradient id="bg" cx="50%" cy="38%" r="78%">
      <stop offset="0%" stop-color="#6e4a28"/>
      <stop offset="55%" stop-color="#3a2613"/>
      <stop offset="100%" stop-color="#170e05"/>
    </radialGradient>
    <linearGradient id="gold" x1="0" y1="0" x2="1" y2="1">
      <stop offset="0%" stop-color="#8a6d1d"/>
      <stop offset="50%" stop-color="#e8c547"/>
      <stop offset="100%" stop-color="#8a6d1d"/>
    </linearGradient>
    <radialGradient id="board" cx="40%" cy="34%" r="80%">
      <stop offset="0" stop-color="#e7b766"/>
      <stop offset="100%" stop-color="#c69a4e"/>
    </radialGradient>
    <radialGradient id="pblack" cx="35%" cy="30%" r="78%">
      <stop offset="0" stop-color="#5c5c5c"/><stop offset="45%" stop-color="#1b1b1b"/><stop offset="100%" stop-color="#000"/>
    </radialGradient>
    <radialGradient id="pwhite" cx="35%" cy="30%" r="82%">
      <stop offset="0" stop-color="#fff"/><stop offset="70%" stop-color="#ece6d8"/><stop offset="100%" stop-color="#c7bda4"/>
    </radialGradient>
  </defs>

  <rect width="480" height="480" rx="36" fill="url(#bg)"/>
  <rect x="14" y="14" width="452" height="452" rx="28" fill="none" stroke="url(#gold)" stroke-width="3"/>
  <rect x="26" y="26" width="428" height="428" rx="22" fill="none" stroke="#e8c547" stroke-width="1" opacity="0.35"/>

  <!-- Gomoku board emblem with a winning diagonal of five stones -->
  <rect x="148" y="116" width="184" height="184" rx="14" fill="url(#board)" stroke="url(#gold)" stroke-width="4"/>
  <g stroke="#3a2a14" stroke-width="2.4" stroke-linecap="round" opacity="0.9">
    <line x1="176" y1="144" x2="304" y2="144"/>
    <line x1="176" y1="176" x2="304" y2="176"/>
    <line x1="176" y1="208" x2="304" y2="208"/>
    <line x1="176" y1="240" x2="304" y2="240"/>
    <line x1="176" y1="272" x2="304" y2="272"/>
    <line x1="176" y1="144" x2="176" y2="272"/>
    <line x1="208" y1="144" x2="208" y2="272"/>
    <line x1="240" y1="144" x2="240" y2="272"/>
    <line x1="272" y1="144" x2="272" y2="272"/>
    <line x1="304" y1="144" x2="304" y2="272"/>
  </g>
  <circle cx="176" cy="272" r="14" fill="url(#pblack)"/>
  <circle cx="208" cy="240" r="14" fill="url(#pwhite)"/>
  <circle cx="240" cy="208" r="14" fill="url(#pblack)"/>
  <circle cx="272" cy="176" r="14" fill="url(#pwhite)"/>
  <circle cx="304" cy="144" r="14" fill="url(#pblack)"/>

  <text x="240" y="372" text-anchor="middle" font-family="Georgia, 'Times New Roman', serif" font-size="38" font-weight="700" letter-spacing="4" fill="url(#gold)">GOMOKU DAWGS</text>
  <text x="240" y="404" text-anchor="middle" font-family="Georgia, serif" font-size="17" letter-spacing="7" fill="#d8cba8">MEMBERSHIP PASS</text>
</svg>
