<svg viewBox="0 0 1280 960" version="1.1" xmlns="http://www.w3.org/2000/svg" desc="Created with imagetracer.js version 1.2.6" ><path fill="rgb(4,2,1)" stroke="rgb(4,2,1)" stroke-width="1" opacity="0.996078431372549" d="M 305.5 291 L 356.5 291 L 358.5 292 Q 359.8 289.8 364.5 291 L 365.5 292 L 430.5 292 L 431.5 291 L 1040.5 291 L 1041.5 292 L 1052.5 293 L 1068.5 299 Q 1080.9 305.6 1089 316.5 L 1098 332.5 L 1102 349.5 L 1102 608.5 Q 1099.5 610 1101 615.5 L 1093 635.5 L 1077.5 653 L 1060.5 663 L 1044.5 667 L 235.5 667 L 224.5 665 L 216.5 662 Q 203.9 656.1 195 646.5 L 183 628.5 L 177 606.5 L 177 348.5 Q 179.7 345.2 179 338.5 L 181 335.5 L 181 330.5 L 184 326.5 L 181 327.5 Q 187.9 311.9 200.5 302 L 202.5 301 L 205.5 302 L 217.5 296 L 234.5 292 L 304.5 292 L 305.5 291 Z M 400 354 L 399 382 L 412 385 L 412 491 Q 408 494 402 495 L 401 504 L 400 505 L 400 519 L 402 519 L 402 518 L 406 517 L 409 518 Q 415 520 417 517 L 431 517 L 432 518 L 457 518 L 456 517 L 456 497 L 445 492 L 444 462 L 444 460 L 447 461 L 456 461 L 457 460 Q 463 458 465 461 L 469 459 L 473 460 L 477 458 L 484 457 L 496 450 Q 504 443 509 433 L 513 420 L 513 412 L 514 411 L 514 397 L 512 386 L 504 371 L 492 360 L 482 356 L 472 354 L 400 354 Z M 526 354 L 525 380 L 534 383 L 535 385 L 535 492 L 524 496 L 525 520 L 528 517 L 607 517 L 609 517 L 621 518 L 622 517 L 622 473 L 622 471 L 622 468 L 617 469 L 616 468 Q 607 470 604 467 L 594 491 L 569 491 L 568 384 L 580 379 L 581 378 L 581 356 L 580 354 L 526 354 Z M 664 354 L 661 377 L 672 381 L 665 403 L 642 491 L 641 492 L 629 495 L 629 497 L 628 519 L 630 519 Q 631 515 633 518 L 647 518 L 648 517 L 676 517 L 679 518 L 684 517 L 687 519 L 687 497 L 674 491 Q 674 485 677 483 L 676 481 L 678 480 L 677 477 L 677 475 L 679 473 L 720 473 L 721 472 L 725 487 L 725 492 L 714 495 L 712 519 L 714 519 Q 715 515 717 518 L 720 517 L 721 518 L 771 518 L 772 519 L 774 519 L 773 506 L 773 504 L 774 502 Q 772 500 773 496 L 762 491 L 755 470 L 753 467 L 751 455 L 733 397 L 731 387 L 728 381 L 738 376 L 736 362 L 733 356 L 732 354 L 664 354 Z M 767 354 L 766 379 L 775 382 L 801 428 L 807 436 L 809 442 L 815 450 L 815 491 L 806 494 L 804 496 L 803 519 L 805 519 Q 807 515 809 519 L 810 518 L 827 518 L 828 517 Q 840 515 847 519 L 852 518 L 854 518 L 857 519 L 859 518 L 860 519 Q 862 513 859 512 L 859 503 L 860 502 L 859 497 L 850 492 L 849 449 L 849 447 L 851 446 L 851 443 L 853 442 L 852 441 L 854 438 L 856 438 L 855 436 L 857 436 L 856 433 L 858 433 L 858 432 L 860 431 L 861 429 L 859 428 L 862 427 L 861 425 L 863 425 L 862 422 L 865 421 L 863 420 L 865 419 L 864 417 L 867 415 L 866 414 L 869 408 L 872 407 L 871 405 L 874 403 L 874 401 L 876 400 L 875 399 L 877 396 L 877 394 L 879 390 L 880 392 L 884 382 L 895 378 L 897 378 L 896 374 L 896 357 L 897 356 L 896 354 L 844 354 L 843 376 Q 841 377 844 378 L 846 377 Q 847 380 849 378 L 851 379 L 853 380 L 835 421 L 812 380 L 822 376 L 822 355 L 767 354 Z M 353 567 L 346 570 Q 337 575 335 588 L 335 597 L 339 608 Q 344 615 355 617 L 360 617 L 368 614 Q 373 611 375 604 L 367 601 L 365 605 L 360 609 L 353 608 Q 348 604 346 598 L 346 585 L 348 581 L 355 575 L 362 576 L 368 583 L 375 579 L 374 577 L 365 568 L 353 567 Z M 440 567 L 431 571 L 426 576 L 422 587 Q 420 601 426 608 L 433 614 L 444 617 L 451 616 L 459 611 L 465 600 Q 467 584 462 577 Q 457 566 440 567 Z M 488 567 L 480 570 L 472 579 L 469 590 Q 469 603 475 610 Q 480 615 489 617 Q 498 617 504 613 L 510 607 L 513 597 L 513 587 L 508 575 Q 502 566 488 567 Z M 529 567 L 522 571 L 518 579 Q 517 587 521 591 L 527 595 L 536 599 L 538 604 L 537 607 L 534 609 L 528 608 L 525 602 L 519 603 Q 517 601 516 604 L 520 613 L 529 617 Q 538 617 543 613 L 547 604 Q 548 597 545 594 L 541 589 L 530 584 L 527 582 L 528 577 Q 529 573 536 575 L 539 580 L 545 578 L 543 572 Q 539 566 529 567 Z M 655 567 L 645 572 L 639 581 L 637 589 Q 636 601 641 608 Q 646 615 657 617 L 661 617 L 670 614 Q 678 609 680 598 Q 682 583 676 576 Q 671 566 655 567 Z M 804 567 L 796 570 Q 787 575 785 587 L 785 597 L 789 608 Q 794 615 805 617 Q 816 617 822 612 L 825 608 L 825 593 L 826 592 L 825 590 L 809 590 L 808 598 L 817 598 L 817 605 L 811 609 Q 804 610 802 607 Q 797 604 796 598 L 796 585 L 798 581 L 805 575 L 813 576 L 817 581 L 824 580 L 822 574 Q 817 566 804 567 Z M 381 568 L 380 616 L 390 616 L 390 596 L 406 595 L 406 616 L 416 616 L 416 570 L 417 569 L 407 568 L 406 588 L 391 588 L 390 569 L 381 568 Z M 554 568 L 553 616 L 580 616 L 580 609 L 579 609 L 565 609 L 563 608 L 564 595 L 576 595 L 577 596 L 577 589 L 563 588 L 564 575 L 578 575 L 579 576 Q 581 575 580 572 L 580 570 L 579 568 L 554 568 Z M 603 568 L 602 570 L 615 597 L 615 616 L 624 616 L 625 595 L 637 569 L 629 568 L 621 587 L 613 569 L 603 568 Z M 687 568 L 686 604 L 689 611 Q 693 616 701 617 Q 709 618 713 615 Q 719 611 721 602 L 721 568 L 712 569 L 712 578 L 713 579 L 712 604 L 707 609 L 700 608 L 696 604 L 696 569 L 687 568 Z M 730 568 L 730 573 L 730 616 L 739 616 L 740 596 L 753 616 L 763 616 L 749 595 L 755 592 L 758 587 L 758 575 L 756 572 L 751 568 L 730 568 Z M 843 568 L 838 579 L 831 606 L 827 616 L 837 616 L 839 607 L 841 605 L 854 605 L 858 616 L 867 616 L 861 599 L 853 569 L 843 568 Z M 872 568 L 870 616 L 878 616 L 880 584 L 887 616 L 895 616 L 904 582 L 904 616 L 913 616 L 913 569 L 901 568 L 892 603 L 884 570 L 883 568 L 872 568 Z M 922 568 L 921 616 L 948 616 L 948 609 L 947 609 L 933 609 L 931 608 L 932 595 L 944 595 L 945 596 L 945 589 L 931 588 L 932 575 L 946 575 L 947 576 L 947 569 L 922 568 Z " /><path fill="rgb(4,2,1)" stroke="rgb(4,2,1)" stroke-width="1" opacity="0.996078431372549" d="M 1116.5 325 L 1118 325.5 L 1120 335.5 L 1120 337.5 L 1119.5 340 L 1118 336.5 L 1119 332.5 L 1116.5 325 Z " /><path fill="rgb(4,2,1)" stroke="rgb(4,2,1)" stroke-width="1" opacity="0.996078431372549" d="M 445.5 382 L 446.5 384 L 455.5 382 L 458.5 384 L 467.5 385 L 473 389.5 Q 479.7 396.3 478 411.5 Q 476.3 421.8 469.5 427 Q 461.4 433.9 444.5 432 L 444 400.5 L 445 399.5 L 445 386.5 L 444 384.5 L 445.5 382 Z " /><path fill="rgb(4,2,1)" stroke="rgb(4,2,1)" stroke-width="1" opacity="0.996078431372549" d="M 696.5 394 L 698 394.5 L 712 446.5 L 686.5 447 L 685 444.5 L 686.5 442 L 685 441.5 L 687 440.5 L 687 436.5 L 687.5 433 L 689 433.5 L 688.5 432 L 687 431.5 L 689 430.5 L 688 427.5 L 691 421.5 L 691 418.5 L 693 416.5 L 691 415.5 L 693 414.5 L 692 412.5 Q 695.5 411 693 409.5 L 693.5 406 L 695 405.5 Q 693.8 397.8 696.5 394 Z " /><path fill="rgb(4,2,1)" stroke="rgb(4,2,1)" stroke-width="1" opacity="0.996078431372549" d="M 1122.5 478 L 1124 480.5 L 1124 514.5 L 1122.5 520 Q 1119.9 517.6 1121 511.5 L 1122 510.5 L 1122.5 478 Z " /><path fill="rgb(4,2,1)" stroke="rgb(4,2,1)" stroke-width="1" opacity="0.996078431372549" d="M 1121.5 535 Q 1124 536 1123 540.5 L 1122 541.5 L 1122 551.5 L 1123 554.5 L 1121.5 559 L 1121.5 535 Z " /><path fill="rgb(4,2,1)" stroke="rgb(4,2,1)" stroke-width="1" opacity="0.996078431372549" d="M 1121.5 568 L 1122 588.5 L 1120.5 591 L 1120 569.5 L 1121.5 568 Z " /><path fill="rgb(4,2,1)" stroke="rgb(4,2,1)" stroke-width="1" opacity="0.996078431372549" d="M 440.5 575 Q 449.9 573.6 452 579.5 L 455 586.5 L 455 597.5 Q 453.4 604.5 448.5 608 L 441.5 609 L 435 603.5 L 433 598.5 L 433 584.5 L 438.5 576 L 440.5 575 Z " /><path fill="rgb(4,2,1)" stroke="rgb(4,2,1)" stroke-width="1" opacity="0.996078431372549" d="M 488.5 575 L 493.5 575 L 500 580.5 L 502 584.5 L 503 592.5 L 501 601.5 L 495.5 608 L 489.5 609 L 482 602.5 Q 478.8 596.8 480 586.5 Q 481.5 579.6 486.5 576 L 488.5 575 Z " /><path fill="rgb(4,2,1)" stroke="rgb(4,2,1)" stroke-width="1" opacity="0.996078431372549" d="M 655.5 575 Q 664.9 573.6 667 579.5 Q 671.2 585.3 670 596.5 Q 668.6 604.1 663.5 608 L 656.5 609 L 651 604.5 Q 646.2 598.3 648 585.5 L 653.5 576 L 655.5 575 Z " /><path fill="rgb(4,2,1)" stroke="rgb(4,2,1)" stroke-width="1" opacity="0.996078431372549" d="M 740.5 575 Q 745.3 574.3 747 576.5 L 749 583.5 L 745.5 588 L 739.5 589 L 739 576.5 L 740.5 575 Z " /><path fill="rgb(4,2,1)" stroke="rgb(4,2,1)" stroke-width="1" opacity="0.996078431372549" d="M 846.5 579 L 848 580.5 L 851 596.5 L 848.5 598 L 844.5 595 L 843.5 597 L 842 596.5 L 846.5 579 Z " /><path fill="rgb(4,2,1)" stroke="rgb(4,2,1)" stroke-width="1" opacity="0.996078431372549" d="M 1120.5 596 L 1121 605.5 L 1119.5 608 L 1119 598.5 L 1120.5 596 Z " /><path fill="rgb(4,2,1)" stroke="rgb(4,2,1)" stroke-width="1" opacity="0.996078431372549" d="M 173.5 644 L 177 649.5 L 175 650.5 L 175.5 649 L 173 647.5 L 173.5 646 L 172 645.5 L 173.5 644 Z " /><path fill="rgb(4,2,1)" stroke="rgb(4,2,1)" stroke-width="1" opacity="0.996078431372549" d="M 1066.5 664 L 1070 666.5 L 1071 668.5 L 1068 669.5 L 1068.5 672 L 1074 674.5 L 1068.5 681 L 1066 681.5 L 1065.5 683 L 1063.5 682 L 1061.5 684 L 1048.5 687 L 1046.5 686 L 1043.5 688 L 825.5 688 L 825.5 687 Q 832.8 683.3 845.5 685 L 852 682.5 L 850 681.5 L 850.5 680 L 855 679.5 L 854.5 678 L 849.5 676 L 847.5 676 L 843.5 676 L 833 672.5 L 836.5 671 L 855.5 671 L 856.5 672 L 864.5 672 L 866.5 672 L 879.5 672 L 880.5 671 L 1044.5 671 Q 1046 668.5 1051.5 670 L 1062.5 666 L 1063.5 667 L 1066.5 664 Z " /><path fill="rgb(4,2,1)" stroke="rgb(4,2,1)" stroke-width="1" opacity="0.996078431372549" d="M 217.5 667 L 220.5 669 L 222 668.5 L 222.5 670 L 225.5 669 L 239.5 672 L 240.5 671 L 417.5 671 L 422.5 672 L 431.5 671 Q 433.3 673.8 439.5 672 Q 441.2 669.3 447.5 671 L 447.5 672 L 444 672.5 L 443.5 675 L 441 676.5 L 442.5 679 L 451 682.5 L 451.5 684 L 454.5 683 L 458.5 686 L 462.5 684 L 463.5 685 L 472.5 685 Q 473.7 682.8 478.5 684 L 481.5 686 L 486.5 685 L 487.5 686 L 497.5 686 L 500 687.5 L 238.5 688 L 235.5 686 Q 234 688.5 228.5 687 L 211 681.5 L 214 679.5 L 213.5 678 L 215 678.5 L 215.5 676 L 217 675.5 L 216.5 674 L 218 673.5 L 215 669.5 L 217.5 667 Z " /><path fill="rgb(146,97,33)" stroke="rgb(146,97,33)" stroke-width="1" opacity="0.996078431372549" d="M 231.5 272 L 386 272.5 L 385 276.5 L 388 280.5 L 385.5 284 L 384 284.5 L 387.5 287 L 396.5 287 L 397.5 288 L 503.5 288 L 504.5 289 L 505.5 288 L 560.5 288 L 561.5 289 L 612.5 289 L 614.5 289 L 621.5 288 L 623.5 288 Q 629.8 286.3 631.5 289 L 632.5 288 L 640.5 288 L 642.5 288 L 647.5 289 L 648.5 288 L 671.5 288 L 672.5 289 L 703.5 289 L 704.5 288 L 719.5 288 L 720.5 289 L 759.5 289 Q 761 286.5 766.5 288 L 768.5 288 L 776.5 289 Q 778 286.5 783.5 288 L 784.5 289 L 799.5 289 L 800.5 288 L 865.5 287 Q 867.1 282.1 873 281.5 L 872.5 280 L 871 279.5 L 877 274.5 L 877.5 272 L 1048.5 272 L 1067.5 276 L 1087.5 286 L 1089.5 286 L 1092.5 287 L 1101 295.5 L 1095.5 298 Q 1093.8 295.3 1092 299.5 L 1090.5 302 Q 1086.8 301.3 1086 303.5 L 1085.5 305 L 1065.5 293 L 1049.5 289 L 1040.5 289 L 1039.5 291 L 431.5 291 L 430.5 292 L 365.5 292 Q 364.2 289.8 359.5 291 L 357.5 292 L 356.5 291 L 305.5 291 L 304.5 292 L 237.5 292 L 237.5 291 L 278 290.5 L 271.5 289 L 233.5 289 L 218.5 292 L 209.5 296 L 206 299.5 L 205.5 302 L 202.5 301 L 190 312.5 L 186 319.5 L 188 319.5 L 187.5 321 L 185.5 320 L 182 326.5 L 184 325.5 L 184.5 324 L 185 325.5 L 181 330.5 L 181 335.5 L 179 338.5 Q 179.7 345.2 177 348.5 L 177 606.5 L 178 610.5 L 176 611.5 L 177 621.5 L 182 634.5 Q 188.2 645.8 197.5 654 L 210 662.5 L 210.5 664 L 212.5 664 L 226 668.5 L 224.5 670 L 222 669.5 L 221.5 668 Q 220 670.5 218.5 667 L 215 669.5 L 218 673.5 L 216 674.5 L 216.5 676 L 215 676.5 L 213.5 680 L 211 681.5 L 222 685.5 L 219.5 686 Q 195.4 678.1 181 660.5 L 171 646.5 L 162 625.5 L 163 623.5 Q 160.8 622.3 162 617.5 L 162.5 616 L 161 615.5 L 161 606.5 L 160 605.5 L 160 578.5 L 159 577.5 L 159 469.5 L 160.5 466 L 165.5 467 L 174.5 472 L 175 343.5 Q 180 321 193.5 307 L 195 306.5 L 195.5 305 L 201 300.5 L 197.5 289 L 195 289.5 L 194.5 291 L 189.5 292 L 191 289.5 L 191.5 288 L 194 287.5 L 194.5 286 L 197 285.5 L 198.5 283 L 207.5 278 L 231.5 272 Z " /><path fill="rgb(146,97,33)" stroke="rgb(146,97,33)" stroke-width="1" opacity="0.996078431372549" d="M 1077.5 304 L 1086 311.5 L 1087.5 314 L 1089 313.5 L 1088 314.5 L 1091 317.5 L 1092 319.5 L 1089 317.5 L 1077.5 304 Z " /><path fill="rgb(146,97,33)" stroke="rgb(146,97,33)" stroke-width="1" opacity="0.996078431372549" d="M 1109.5 309 Q 1116.2 314.3 1118 324.5 L 1116 325.5 L 1118.5 332 L 1119.5 330 L 1120 331.5 L 1119 335.5 L 1121 336.5 L 1122 375.5 L 1123 376.5 L 1124 445.5 L 1123 447.5 L 1124 448.5 L 1124 479.5 L 1123 479.5 L 1122.5 478 L 1122 510.5 Q 1119.5 512 1121 517.5 L 1122.5 520 L 1123.5 515 L 1124 541.5 L 1123 542.5 L 1122.5 552 L 1122 541.5 L 1123 536.5 L 1121 535.5 L 1121.5 559 L 1122.5 555 L 1123 577.5 L 1122 577.5 L 1121.5 568 L 1120 569.5 L 1120 590.5 L 1121 590.5 L 1121.5 589 L 1122 599.5 L 1121 599.5 L 1120.5 596 Q 1117.3 599.3 1119 607.5 L 1120 607.5 L 1120.5 606 L 1121 612.5 L 1118 626.5 Q 1114.3 628.8 1113.5 634 L 1112 633.5 L 1113 636.5 L 1111 636.5 L 1112 639.5 Q 1103.8 659.8 1087.5 672 L 1086 672.5 L 1085.5 674 L 1078 678.5 L 1077.5 680 L 1074 680.5 L 1073.5 682 L 1056.5 686 L 1056.5 685 Q 1061.7 685.2 1063.5 682 L 1065.5 683 L 1066.5 681 Q 1070.5 681.5 1071 678.5 L 1074 674.5 L 1068 671.5 L 1068.5 669 L 1071 668.5 L 1067 663.5 Q 1078.8 658.3 1087 649.5 L 1094.5 640 L 1096 639.5 L 1096 637.5 L 1101.5 624 L 1103 623.5 L 1102 621.5 L 1103 620.5 L 1104 605.5 L 1102 605.5 L 1102.5 544 L 1103.5 547 L 1104 499.5 L 1102 498.5 L 1102.5 355 L 1104 356.5 L 1104 450.5 L 1105 451.5 L 1105 466.5 L 1106.5 473 L 1110.5 472 L 1112.5 475 L 1116.5 474 L 1119.5 480 L 1120 405.5 L 1119 404.5 L 1119 354.5 L 1118 353.5 L 1118 337.5 Q 1120.5 336 1117 334.5 L 1115 324.5 L 1116 322.5 L 1113 321.5 L 1109 311.5 L 1109.5 309 Z " /><path fill="rgb(146,97,33)" stroke="rgb(146,97,33)" stroke-width="1" opacity="0.996078431372549" d="M 1092.5 321 L 1096 326.5 L 1094 325.5 L 1092.5 321 Z " /><path fill="rgb(146,97,33)" stroke="rgb(146,97,33)" stroke-width="1" opacity="0.996078431372549" d="M 399.5 354 L 472 354.5 L 399.5 355 L 399.5 354 Z " /><path fill="rgb(146,97,33)" stroke="rgb(146,97,33)" stroke-width="1" opacity="0.996078431372549" d="M 525.5 354 L 579.5 354 L 581 355.5 L 581 377.5 L 579.5 379 L 568 383.5 L 568.5 491 L 594 490.5 L 594.5 489 L 595 490.5 L 593.5 492 L 568.5 492 L 566 494.5 L 595.5 495 L 605.5 472 L 619.5 472 L 621 470.5 L 620.5 469 L 617 468.5 L 621.5 468 L 622 470.5 L 622 472.5 L 622 516.5 L 621 517.5 L 621.5 519 Q 617.5 515.5 608.5 517 L 606.5 517 L 527.5 517 L 524.5 520 L 524 518.5 L 527 515.5 L 527 499.5 L 529.5 497 L 538 493.5 L 538 456.5 L 539.5 453 L 541 453.5 L 541.5 455 L 548.5 456 L 551.5 454 L 561.5 457 L 562.5 455 L 564 455.5 L 566 447.5 L 566.5 382 L 579 377.5 L 578 375.5 L 578 358.5 L 580 355.5 L 525.5 355 L 525.5 354 Z " /><path fill="rgb(146,97,33)" stroke="rgb(146,97,33)" stroke-width="1" opacity="0.996078431372549" d="M 766.5 354 L 822 354.5 L 821.5 376 L 812 379.5 L 815 384.5 L 813 383.5 L 811 378.5 L 820 375.5 L 819 358.5 L 821 355.5 L 766.5 355 L 766.5 354 Z " /><path fill="rgb(146,97,33)" stroke="rgb(146,97,33)" stroke-width="1" opacity="0.996078431372549" d="M 843.5 354 L 895.5 354 L 897 355.5 L 896 356.5 L 896 373.5 L 897 377.5 L 896 377.5 L 894 374.5 L 894 357.5 L 895.5 355 L 843.5 355 L 843.5 354 Z " /><path fill="rgb(146,97,33)" stroke="rgb(146,97,33)" stroke-width="1" opacity="0.996078431372549" d="M 735.5 361 L 738 375.5 L 726.5 380 L 727.5 378 L 737 374.5 Q 734 371.5 734 365.5 L 735.5 361 Z " /><path fill="rgb(146,97,33)" stroke="rgb(146,97,33)" stroke-width="1" opacity="0.996078431372549" d="M 497.5 364 L 503.5 371 L 497.5 364 Z " /><path fill="rgb(146,97,33)" stroke="rgb(146,97,33)" stroke-width="1" opacity="0.996078431372549" d="M 504.5 372 L 511 383.5 L 510 383.5 L 504.5 372 Z " /><path fill="rgb(146,97,33)" stroke="rgb(146,97,33)" stroke-width="1" opacity="0.996078431372549" d="M 665.5 377 L 674 379.5 L 671.5 383 L 671 381.5 Q 673.3 380.3 670.5 379 Q 665.6 379.6 665.5 377 Z " /><path fill="rgb(146,97,33)" stroke="rgb(146,97,33)" stroke-width="1" opacity="0.996078431372549" d="M 846.5 377 L 855 379.5 L 853 380.5 L 852.5 379 L 850.5 379 L 848.5 378 Q 846.7 380.5 846.5 377 Z " /><path fill="rgb(146,97,33)" stroke="rgb(146,97,33)" stroke-width="1" opacity="0.996078431372549" d="M 891.5 377 L 895 377.5 L 884 381.5 L 878.5 393 L 877 392.5 L 878 394.5 L 875 398.5 L 875.5 400 L 874 400.5 L 873.5 403 L 872 403.5 L 872 405.5 L 871.5 407 Q 870.3 404.8 869 407.5 L 866 413.5 L 866.5 415 L 865 415.5 L 865.5 417 Q 862.8 415.8 865 414.5 L 881 381.5 L 883.5 379 L 891.5 377 Z " /><path fill="rgb(146,97,33)" stroke="rgb(146,97,33)" stroke-width="1" opacity="0.996078431372549" d="M 766.5 378 Q 774.4 377.1 776 382.5 L 774.5 382 L 766.5 379 L 766.5 378 Z " /><path fill="rgb(146,97,33)" stroke="rgb(146,97,33)" stroke-width="1" opacity="0.996078431372549" d="M 400.5 380 L 412 383.5 L 411.5 385 L 399 381.5 L 400.5 380 Z " /><path fill="rgb(146,97,33)" stroke="rgb(146,97,33)" stroke-width="1" opacity="0.996078431372549" d="M 442.5 381 L 465.5 381 L 472 385.5 L 473 388.5 L 471.5 388 L 467.5 385 L 458.5 384 L 453.5 382 L 446.5 384 L 445.5 382 L 444.5 384 L 442 383.5 L 442.5 381 Z " /><path fill="rgb(146,97,33)" stroke="rgb(146,97,33)" stroke-width="1" opacity="0.996078431372549" d="M 444.5 386 L 445 399.5 L 444 399.5 L 444.5 386 Z " /><path fill="rgb(146,97,33)" stroke="rgb(146,97,33)" stroke-width="1" opacity="0.996078431372549" d="M 697.5 389 L 699 396.5 L 698 396.5 L 697.5 394 L 696 393.5 Q 695.3 389.8 697.5 389 Z " /><path fill="rgb(146,97,33)" stroke="rgb(146,97,33)" stroke-width="1" opacity="0.996078431372549" d="M 779.5 389 L 783 394.5 L 781 393.5 L 779.5 389 Z " /><path fill="rgb(146,97,33)" stroke="rgb(146,97,33)" stroke-width="1" opacity="0.996078431372549" d="M 819.5 394 L 823 399.5 L 821 398.5 L 819.5 394 Z " /><path fill="rgb(146,97,33)" stroke="rgb(146,97,33)" stroke-width="1" opacity="0.996078431372549" d="M 513.5 396 L 514 410.5 L 513 411.5 L 513 419.5 L 509 432.5 Q 504.5 443.5 495.5 450 L 483.5 457 L 476.5 458 L 472.5 460 L 468.5 459 L 464.5 461 Q 462.8 458.3 456.5 460 L 455.5 461 L 446.5 461 Q 445.3 458.8 444 461.5 L 444 491.5 L 443 494.5 L 454.5 501 L 455 496.5 L 453 495.5 L 454.5 495 L 456 496.5 L 456 516.5 L 457 517.5 L 431.5 518 L 430.5 517 L 416.5 517 Q 414.7 519.7 408.5 518 L 405.5 517 L 402 517.5 L 401.5 519 L 400 518.5 L 403 515.5 L 404 499.5 L 405.5 498 L 415 492.5 L 416 483.5 Q 413.8 482.2 415 477.5 L 416.5 470 L 423.5 466 L 426.5 466 L 428.5 467 L 430 466.5 L 430.5 468 L 434 467.5 L 434.5 466 L 439.5 469 L 442 460.5 L 441 458.5 Q 442.2 455.8 443.5 458 L 468.5 458 L 471.5 456 L 474.5 457 Q 490.9 452.9 500 441.5 L 507 429.5 L 511.5 408 L 513 407.5 L 513.5 396 Z " /><path fill="rgb(146,97,33)" stroke="rgb(146,97,33)" stroke-width="1" opacity="0.996078431372549" d="M 824.5 403 L 829 410.5 L 827 409.5 L 824.5 403 Z " /><path fill="rgb(146,97,33)" stroke="rgb(146,97,33)" stroke-width="1" opacity="0.996078431372549" d="M 736.5 407 L 751 454.5 L 753 466.5 L 755 469.5 L 761.5 491 L 765 492.5 L 763.5 493 L 760.5 492 L 760 493.5 L 774 501.5 L 773 503.5 L 773 505.5 L 774 518.5 L 771.5 519 L 770.5 518 L 720.5 518 L 719.5 517 L 716.5 518 Q 715 515.5 713.5 519 L 712 518.5 L 712.5 517 L 715 516.5 L 715 504.5 Q 711.8 502.2 713 495.5 L 714.5 495 L 714 496.5 L 714.5 502 L 716 501.5 L 720.5 496 L 729 493.5 L 723.5 472 L 721.5 476 L 720.5 472 L 719.5 473 L 678.5 473 L 677 474.5 L 677 476.5 L 678 479.5 L 676 480.5 L 677 482.5 Q 673.5 484.5 674 490.5 L 678 492.5 L 675.5 493 L 673.5 492 L 673 493.5 L 685.5 501 L 686 496.5 L 685.5 495 L 687 496.5 L 687 518.5 L 685.5 518 L 683.5 517 L 678.5 518 L 675.5 517 L 647.5 517 L 646.5 518 L 632.5 518 Q 631 515.5 629.5 519 L 628 518.5 L 628.5 504 L 629.5 518 L 632 513.5 L 632 499.5 L 634.5 497 L 644 493.5 L 645 488.5 L 643.5 488 L 642.5 492 L 641 491.5 L 643.5 485 L 644.5 487 L 646 485.5 L 654 460.5 L 654 456.5 L 660 440.5 Q 657.5 439 661 437.5 L 660 435.5 L 661.5 435 L 666.5 438 L 668.5 437 L 671.5 440 L 672.5 439 L 676.5 437 L 677.5 439 Q 683 437.5 684.5 440 L 685 437.5 Q 682.5 436 686 434.5 L 686.5 432 L 689 432.5 L 688.5 434 L 687 433.5 L 688 437.5 Q 684.9 439.2 686.5 441 L 685 441.5 L 687 442.5 L 685 445.5 L 686.5 448 L 684.5 448 L 682 449.5 L 682.5 451 L 714.5 451 L 716 449.5 L 715 447.5 L 715 445.5 L 714 436.5 L 722.5 432 L 735.5 432 L 739.5 435 L 741 432.5 L 737 421.5 L 735 408.5 L 736.5 407 Z " /><path fill="rgb(146,97,33)" stroke="rgb(146,97,33)" stroke-width="1" opacity="0.996078431372549" d="M 692.5 408 L 694 410.5 L 692 413.5 L 692.5 415 L 691 414.5 L 692.5 408 Z " /><path fill="rgb(146,97,33)" stroke="rgb(146,97,33)" stroke-width="1" opacity="0.996078431372549" d="M 793.5 413 L 797 418.5 L 795 417.5 L 793.5 413 Z " /><path fill="rgb(146,97,33)" stroke="rgb(146,97,33)" stroke-width="1" opacity="0.996078431372549" d="M 690.5 416 L 693 416.5 L 689.5 423 L 689 419.5 L 690.5 416 Z " /><path fill="rgb(146,97,33)" stroke="rgb(146,97,33)" stroke-width="1" opacity="0.996078431372549" d="M 863.5 417 L 864.5 419 L 863 419.5 L 865 420.5 L 862 421.5 L 862.5 423 L 864 422.5 L 862.5 425 L 861 424.5 L 862 426.5 L 859 427.5 L 861 428.5 L 859.5 431 L 858 431.5 L 855.5 438 L 854 437.5 L 855 439.5 L 852 440.5 L 852.5 442 L 851 442.5 L 850.5 446 L 849 446.5 L 849 448.5 L 848.5 492 L 847 492.5 L 847.5 494 L 858.5 502 L 859.5 500 L 860 501.5 L 859 502.5 L 859 511.5 Q 861.5 513 860 518.5 L 858.5 518 L 856.5 519 L 853.5 518 L 851.5 518 L 846.5 519 Q 839.6 515.4 827.5 517 L 826.5 518 L 809.5 518 L 808.5 519 Q 806.5 515 804.5 519 L 803 518.5 L 806 515.5 L 807 499.5 L 808.5 497 L 818 492.5 L 818 451.5 L 819 450.5 L 818 447.5 L 817.5 446 L 816 445.5 L 813.5 441 L 807 437.5 L 805 433.5 L 807.5 435 L 809 434.5 L 808 432.5 L 809.5 430 L 810.5 432 L 813 430.5 L 814.5 427 L 822.5 429 L 832.5 427 L 834.5 430 L 837 428.5 L 837.5 427 L 840 425.5 L 840.5 420 L 842 420.5 L 842.5 422 L 845.5 423 L 847.5 422 L 850 424.5 L 851.5 430 L 854.5 429 L 856.5 430 L 863.5 417 Z " /><path fill="rgb(146,97,33)" stroke="rgb(146,97,33)" stroke-width="1" opacity="0.996078431372549" d="M 442.5 424 Q 445.5 425.5 444 431.5 L 442 432.5 L 442.5 424 Z " /><path fill="rgb(146,97,33)" stroke="rgb(146,97,33)" stroke-width="1" opacity="0.996078431372549" d="M 688.5 424 L 689 426.5 L 688 428.5 L 689 430.5 L 687.5 431 L 687 427.5 L 688.5 424 Z " /><path fill="rgb(146,97,33)" stroke="rgb(146,97,33)" stroke-width="1" opacity="0.996078431372549" d="M 712.5 445 L 713 447.5 L 704.5 448 L 704.5 447 L 712 446.5 L 712.5 445 Z " /><path fill="rgb(146,97,33)" stroke="rgb(146,97,33)" stroke-width="1" opacity="0.996078431372549" d="M 813.5 447 L 816 449.5 L 816 490.5 L 808.5 494 L 808.5 493 L 815 490.5 L 815 449.5 L 813.5 447 Z " /><path fill="rgb(146,97,33)" stroke="rgb(146,97,33)" stroke-width="1" opacity="0.996078431372549" d="M 606.5 468 L 616 468.5 L 606.5 469 L 606.5 468 Z " /><path fill="rgb(146,97,33)" stroke="rgb(146,97,33)" stroke-width="1" opacity="0.996078431372549" d="M 400.5 504 L 401 513.5 L 400 513.5 L 400.5 504 Z " /><path fill="rgb(146,97,33)" stroke="rgb(146,97,33)" stroke-width="1" opacity="0.996078431372549" d="M 352.5 567 L 361 567.5 L 352.5 568 L 352.5 567 Z " /><path fill="rgb(146,97,33)" stroke="rgb(146,97,33)" stroke-width="1" opacity="0.996078431372549" d="M 803.5 567 L 812 567.5 L 803.5 568 L 803.5 567 Z " /><path fill="rgb(146,97,33)" stroke="rgb(146,97,33)" stroke-width="1" opacity="0.996078431372549" d="M 695.5 568 L 696 602.5 L 695 602.5 L 695.5 568 Z " /><path fill="rgb(146,97,33)" stroke="rgb(146,97,33)" stroke-width="1" opacity="0.996078431372549" d="M 712.5 568 L 713 577.5 L 712 577.5 L 712.5 568 Z " /><path fill="rgb(146,97,33)" stroke="rgb(146,97,33)" stroke-width="1" opacity="0.996078431372549" d="M 720.5 568 L 721 601.5 L 720 601.5 L 720.5 568 Z " /><path fill="rgb(146,97,33)" stroke="rgb(146,97,33)" stroke-width="1" opacity="0.996078431372549" d="M 912.5 568 L 913 583.5 L 912 583.5 L 912.5 568 Z " /><path fill="rgb(146,97,33)" stroke="rgb(146,97,33)" stroke-width="1" opacity="0.996078431372549" d="M 453.5 569 L 462 576.5 L 463 578.5 L 461 577.5 L 455.5 571 L 453.5 569 Z " /><path fill="rgb(146,97,33)" stroke="rgb(146,97,33)" stroke-width="1" opacity="0.996078431372549" d="M 479.5 570 L 474.5 576 L 479.5 570 Z " /><path fill="rgb(146,97,33)" stroke="rgb(146,97,33)" stroke-width="1" opacity="0.996078431372549" d="M 670.5 570 L 675.5 576 L 670.5 570 Z " /><path fill="rgb(146,97,33)" stroke="rgb(146,97,33)" stroke-width="1" opacity="0.996078431372549" d="M 818.5 570 L 823 575.5 L 821 574.5 L 818.5 570 Z " /><path fill="rgb(146,97,33)" stroke="rgb(146,97,33)" stroke-width="1" opacity="0.996078431372549" d="M 430.5 571 L 426.5 576 L 430.5 571 Z " /><path fill="rgb(146,97,33)" stroke="rgb(146,97,33)" stroke-width="1" opacity="0.996078431372549" d="M 371.5 574 L 375 578.5 L 367.5 583 L 366.5 581 L 368.5 582 L 374 578.5 L 371.5 574 Z " /><path fill="rgb(146,97,33)" stroke="rgb(146,97,33)" stroke-width="1" opacity="0.996078431372549" d="M 352.5 575 L 354 575.5 L 348.5 580 L 352.5 575 Z " /><path fill="rgb(146,97,33)" stroke="rgb(146,97,33)" stroke-width="1" opacity="0.996078431372549" d="M 494.5 575 L 500 579.5 L 495.5 576 L 494.5 575 Z " /><path fill="rgb(146,97,33)" stroke="rgb(146,97,33)" stroke-width="1" opacity="0.996078431372549" d="M 562.5 575 L 563 587.5 L 564 588.5 L 562 587.5 L 562.5 575 Z " /><path fill="rgb(146,97,33)" stroke="rgb(146,97,33)" stroke-width="1" opacity="0.996078431372549" d="M 930.5 575 L 931 587.5 L 930 587.5 L 930.5 575 Z " /><path fill="rgb(146,97,33)" stroke="rgb(146,97,33)" stroke-width="1" opacity="0.996078431372549" d="M 878.5 580 L 880 583.5 L 879 584.5 L 878.5 596 L 878.5 580 Z " /><path fill="rgb(146,97,33)" stroke="rgb(146,97,33)" stroke-width="1" opacity="0.996078431372549" d="M 527.5 582 L 535 586.5 L 533.5 587 Q 528.5 585.5 527.5 582 Z " /><path fill="rgb(146,97,33)" stroke="rgb(146,97,33)" stroke-width="1" opacity="0.996078431372549" d="M 629.5 584 L 630 585.5 L 626.5 592 L 626 590.5 L 629.5 584 Z " /><path fill="rgb(146,97,33)" stroke="rgb(146,97,33)" stroke-width="1" opacity="0.996078431372549" d="M 785.5 586 L 786 596.5 L 785 596.5 L 785.5 586 Z " /><path fill="rgb(146,97,33)" stroke="rgb(146,97,33)" stroke-width="1" opacity="0.996078431372549" d="M 345.5 587 L 346 596.5 L 345 596.5 L 345.5 587 Z " /><path fill="rgb(146,97,33)" stroke="rgb(146,97,33)" stroke-width="1" opacity="0.996078431372549" d="M 795.5 587 L 797 600.5 L 796 600.5 Q 793.5 595.3 795.5 587 Z " /><path fill="rgb(146,97,33)" stroke="rgb(146,97,33)" stroke-width="1" opacity="0.996078431372549" d="M 538.5 588 L 545 593.5 L 540.5 590 L 538.5 588 Z " /><path fill="rgb(146,97,33)" stroke="rgb(146,97,33)" stroke-width="1" opacity="0.996078431372549" d="M 611.5 588 L 615 595.5 L 614 595.5 L 611.5 588 Z " /><path fill="rgb(146,97,33)" stroke="rgb(146,97,33)" stroke-width="1" opacity="0.996078431372549" d="M 808.5 590 L 824.5 590 L 826 591.5 L 824.5 591 L 808.5 591 L 808.5 590 Z " /><path fill="rgb(146,97,33)" stroke="rgb(146,97,33)" stroke-width="1" opacity="0.996078431372549" d="M 525.5 593 L 532 596.5 L 530.5 597 Q 525.9 595.8 525.5 593 Z " /><path fill="rgb(146,97,33)" stroke="rgb(146,97,33)" stroke-width="1" opacity="0.996078431372549" d="M 842.5 593 L 843 595.5 L 842.5 597 L 844 596.5 L 844.5 595 L 848 597.5 L 842.5 598 Q 839.7 596.8 842 595.5 L 842.5 593 Z " /><path fill="rgb(146,97,33)" stroke="rgb(146,97,33)" stroke-width="1" opacity="0.996078431372549" d="M 748.5 594 L 763 615.5 L 760.5 616 L 752.5 616 L 751 614.5 L 748 609.5 L 751 610.5 L 750 608.5 L 753 606.5 L 752.5 605 L 754 605.5 L 754.5 607 L 756 606.5 L 748.5 594 Z " /><path fill="rgb(146,97,33)" stroke="rgb(146,97,33)" stroke-width="1" opacity="0.996078431372549" d="M 406.5 595 L 408.5 603 L 410.5 602 L 412.5 602 L 416 605.5 L 415.5 616 L 406 615.5 L 406.5 595 Z " /><path fill="rgb(146,97,33)" stroke="rgb(146,97,33)" stroke-width="1" opacity="0.996078431372549" d="M 562.5 595 L 563 607.5 L 564 608.5 L 561 609.5 L 577.5 610 L 580 611.5 L 579.5 616 L 554 615.5 L 554 605.5 L 555.5 604 L 561 605.5 L 561.5 607 L 562.5 595 Z " /><path fill="rgb(146,97,33)" stroke="rgb(146,97,33)" stroke-width="1" opacity="0.996078431372549" d="M 739.5 595 L 748 607.5 L 746 606.5 L 739.5 595 Z " /><path fill="rgb(146,97,33)" stroke="rgb(146,97,33)" stroke-width="1" opacity="0.996078431372549" d="M 930.5 595 L 931 607.5 L 932 608.5 L 930 609.5 L 945.5 610 L 946.5 611 L 948 610.5 L 947.5 616 L 922 615.5 L 922 602.5 L 924.5 600 L 929.5 603 L 930.5 595 Z " /><path fill="rgb(146,97,33)" stroke="rgb(146,97,33)" stroke-width="1" opacity="0.996078431372549" d="M 615.5 597 L 616.5 600 Q 622.5 598.5 624 601.5 L 623.5 616 L 615 615.5 L 615.5 597 Z " /><path fill="rgb(146,97,33)" stroke="rgb(146,97,33)" stroke-width="1" opacity="0.996078431372549" d="M 808.5 597 L 817 597.5 L 808.5 598 L 808.5 597 Z " /><path fill="rgb(146,97,33)" stroke="rgb(146,97,33)" stroke-width="1" opacity="0.996078431372549" d="M 346.5 598 Q 347.6 604.4 352 607.5 L 348 604.5 Q 345 602 346.5 598 Z " /><path fill="rgb(146,97,33)" stroke="rgb(146,97,33)" stroke-width="1" opacity="0.996078431372549" d="M 481.5 600 Q 482.1 605.9 487 607.5 L 485.5 607 L 484 606.5 L 481 602.5 L 481.5 600 Z " /><path fill="rgb(146,97,33)" stroke="rgb(146,97,33)" stroke-width="1" opacity="0.996078431372549" d="M 678.5 600 L 679 601.5 Q 676.6 610.1 669.5 614 L 660.5 617 L 656.5 617 Q 645.6 615.4 641 607.5 L 639 602.5 L 640 602.5 L 642.5 607 L 644.5 603 Q 648.8 602.3 649.5 605 L 650 603.5 L 649 601.5 L 650 601.5 L 654 607.5 Q 651.8 608.8 654.5 610 Q 659.2 608.8 660.5 611 L 668 606.5 L 670.5 603 L 675 603.5 L 675.5 606 L 678.5 600 Z " /><path fill="rgb(146,97,33)" stroke="rgb(146,97,33)" stroke-width="1" opacity="0.996078431372549" d="M 366.5 601 L 367 602.5 L 362.5 608 L 365 604.5 L 366.5 601 Z " /><path fill="rgb(146,97,33)" stroke="rgb(146,97,33)" stroke-width="1" opacity="0.996078431372549" d="M 463.5 601 L 464 602.5 L 458.5 611 L 450.5 616 L 443.5 617 L 432.5 614 L 426 607.5 L 424 603.5 L 426 604.5 L 426.5 606 L 427 603.5 L 426.5 602 Q 431 601.5 431.5 605 L 432.5 604 L 436 606.5 L 435 604.5 L 439 607.5 L 437.5 607 L 436 607.5 L 438.5 610 Q 444 608.5 445.5 611 L 448 609.5 L 446 608.5 L 447.5 608 L 450 609.5 L 449 607.5 L 452 605.5 L 450.5 608 L 454 605.5 L 454.5 604 L 460.5 602 L 461.5 605 L 463.5 601 Z " /><path fill="rgb(146,97,33)" stroke="rgb(146,97,33)" stroke-width="1" opacity="0.996078431372549" d="M 668.5 601 L 669 602.5 L 665.5 607 L 666 605.5 L 668.5 601 Z " /><path fill="rgb(146,97,33)" stroke="rgb(146,97,33)" stroke-width="1" opacity="0.996078431372549" d="M 735.5 601 L 738 602.5 L 739 615.5 L 731.5 616 L 731 602.5 L 735.5 601 Z " /><path fill="rgb(146,97,33)" stroke="rgb(146,97,33)" stroke-width="1" opacity="0.996078431372549" d="M 836.5 601 L 840.5 603 L 845.5 603 L 849.5 601 L 849.5 602 L 848 602.5 L 850.5 604 Q 852.5 600 854.5 604 L 859.5 603 L 862 604.5 L 862.5 602 L 867 615.5 L 864.5 616 L 857 615.5 L 853.5 605 L 840.5 605 L 839 606.5 L 836.5 616 L 829 615.5 L 828 612.5 L 829 612.5 L 829.5 614 L 830 610.5 L 829.5 609 Q 831.3 611.8 833 607.5 L 832 605.5 L 835 604.5 L 836.5 601 Z " /><path fill="rgb(146,97,33)" stroke="rgb(146,97,33)" stroke-width="1" opacity="0.996078431372549" d="M 337.5 602 L 339.5 606 L 344.5 603 L 349.5 609 L 354.5 611 L 356.5 610 L 358.5 610 L 361.5 611 Q 362.9 608.4 367.5 609 Q 369.8 613.3 372 608.5 L 374.5 603 L 375 605.5 L 367.5 614 L 359.5 617 L 354.5 617 Q 343.6 615.4 339 607.5 L 337.5 602 Z " /><path fill="rgb(146,97,33)" stroke="rgb(146,97,33)" stroke-width="1" opacity="0.996078431372549" d="M 384.5 602 L 389 603.5 Q 391.7 607.3 390 615.5 L 381.5 616 L 381 608.5 L 382 604.5 L 384.5 602 Z " /><path fill="rgb(146,97,33)" stroke="rgb(146,97,33)" stroke-width="1" opacity="0.996078431372549" d="M 500.5 602 L 501 603.5 L 499 606.5 L 502 604.5 L 502.5 602 L 508.5 606 L 509 604.5 L 508 602.5 L 511 602.5 Q 510 610.5 503.5 613 Q 498.2 617.2 488.5 617 Q 479.9 615.1 475 609.5 L 473 606.5 L 476 605.5 L 476.5 604 L 479.5 603 L 484.5 609 L 493.5 611 L 499 607.5 L 497.5 607 L 496 607.5 L 500.5 602 Z " /><path fill="rgb(146,97,33)" stroke="rgb(146,97,33)" stroke-width="1" opacity="0.996078431372549" d="M 787.5 602 L 789.5 606 L 791.5 603 L 802.5 610 L 813.5 610 L 819 605.5 L 819.5 604 L 823.5 603 L 823 604.5 L 825 607.5 L 823 608.5 Q 825.8 610.2 821.5 612 Q 815.6 617.1 804.5 617 Q 793.7 615.3 789 607.5 L 787.5 602 Z " /><path fill="rgb(146,97,33)" stroke="rgb(146,97,33)" stroke-width="1" opacity="0.996078431372549" d="M 689.5 603 L 692.5 606 L 693.5 605 L 696.5 604 L 696 605.5 L 696.5 608 L 698 607.5 L 697.5 606 L 699.5 610 L 706.5 611 L 711 607.5 L 709.5 607 L 707 608.5 L 712 604.5 L 711 606.5 L 715.5 603 L 718 603.5 L 718.5 606 L 719.5 604 L 720 605.5 L 712.5 615 Q 708.5 618 700.5 617 Q 692.7 615.8 689 610.5 L 688 608.5 L 689 606.5 L 687 606.5 L 687.5 605 L 689 604.5 L 689.5 603 Z " /><path fill="rgb(146,97,33)" stroke="rgb(146,97,33)" stroke-width="1" opacity="0.996078431372549" d="M 870.5 603 L 871 615.5 L 870 615.5 L 870.5 603 Z " /><path fill="rgb(146,97,33)" stroke="rgb(146,97,33)" stroke-width="1" opacity="0.996078431372549" d="M 873.5 603 L 876 604.5 L 878 615.5 L 872.5 616 L 873 614.5 L 874 608.5 Q 871.7 607.1 873.5 603 Z " /><path fill="rgb(146,97,33)" stroke="rgb(146,97,33)" stroke-width="1" opacity="0.996078431372549" d="M 545.5 605 L 546 607.5 L 542.5 613 Q 538 617.5 528.5 617 L 520 612.5 L 518 609.5 L 521 608.5 L 521.5 607 L 523.5 607 L 528.5 611 L 534.5 611 L 541.5 607 L 543.5 608 L 545.5 605 Z " /><path fill="rgb(146,97,33)" stroke="rgb(146,97,33)" stroke-width="1" opacity="0.996078431372549" d="M 906.5 605 Q 911 604 912 606.5 L 913 615.5 L 904.5 616 L 904 612.5 L 906.5 605 Z " /><path fill="rgb(146,97,33)" stroke="rgb(146,97,33)" stroke-width="1" opacity="0.996078431372549" d="M 891.5 606 L 894.5 607 L 896.5 606 L 897 607.5 L 895 607.5 L 896 611.5 L 894.5 616 L 887 615.5 L 888 612.5 L 886 612.5 L 885 608.5 L 886 608.5 L 886.5 610 L 887.5 607 L 891.5 606 Z " /><path fill="rgb(146,97,33)" stroke="rgb(146,97,33)" stroke-width="1" opacity="0.996078431372549" d="M 1092.5 636 L 1091 638.5 L 1088.5 642 L 1090 639.5 L 1092.5 636 Z " /><path fill="rgb(146,97,33)" stroke="rgb(146,97,33)" stroke-width="1" opacity="0.996078431372549" d="M 1087.5 643 L 1078.5 653 L 1087.5 643 Z " /><path fill="rgb(146,97,33)" stroke="rgb(146,97,33)" stroke-width="1" opacity="0.996078431372549" d="M 198.5 649 L 207 656.5 L 204.5 655 L 198.5 649 Z " /><path fill="rgb(146,97,33)" stroke="rgb(146,97,33)" stroke-width="1" opacity="0.996078431372549" d="M 208.5 657 L 216 661.5 L 214.5 661 Q 208.9 660.2 208.5 657 Z " /><path fill="rgb(146,97,33)" stroke="rgb(146,97,33)" stroke-width="1" opacity="0.996078431372549" d="M 1065.5 664 L 1063.5 667 L 1061.5 667 L 1060 666.5 L 1065.5 664 Z " /><path fill="rgb(146,97,33)" stroke="rgb(146,97,33)" stroke-width="1" opacity="0.996078431372549" d="M 600.5 667 L 775 667.5 L 600.5 668 L 600.5 667 Z " /><path fill="rgb(146,97,33)" stroke="rgb(146,97,33)" stroke-width="1" opacity="0.996078431372549" d="M 824.5 667 L 955 667.5 L 824.5 668 L 824.5 667 Z " /><path fill="rgb(146,97,33)" stroke="rgb(146,97,33)" stroke-width="1" opacity="0.996078431372549" d="M 234.5 670 L 603.5 670 L 608.5 671 L 614.5 675 L 659.5 676 L 660.5 675 L 678.5 675 L 683.5 674 L 689.5 670 L 1044.5 670 L 1044.5 671 L 880.5 671 L 879.5 672 L 866.5 672 L 864.5 672 L 836.5 671 L 833 672.5 L 848.5 677 L 850.5 677 L 855 678.5 L 854.5 680 L 850 680.5 L 850.5 682 L 852 682.5 Q 844.9 686.9 831.5 685 L 824.5 688 L 801.5 688 L 799.5 688 L 500.5 688 L 497.5 686 L 482.5 685 L 480.5 685 L 473.5 684 L 472.5 685 L 463.5 685 L 460.5 684 L 457.5 686 L 454.5 683 L 453.5 684 L 451 683.5 L 450.5 682 Q 443.9 681.6 441 677.5 L 442.5 675 L 444 674.5 L 444.5 672 L 448 671.5 L 440.5 671 Q 438.7 673.8 432.5 672 Q 430.8 669.3 424.5 671 L 422.5 672 L 417.5 671 L 240.5 671 L 239.5 672 L 234.5 671 L 234.5 670 Z " /><path fill="rgb(229,183,105)" stroke="rgb(229,183,105)" stroke-width="1" opacity="0.996078431372549" d="M 224.5 268 L 1055.5 268 L 1064.5 272 L 1069.5 272 Q 1071 275 1076 274.5 L 1076.5 276 L 1086 280.5 L 1086.5 282 L 1088.5 283 L 1090 282.5 L 1090.5 284 L 1092 284.5 L 1092.5 286 L 1094 286.5 L 1094.5 288 L 1102 294.5 L 1102.5 296 L 1104 296.5 L 1106.5 300 L 1108 300.5 L 1116 317.5 L 1115 317.5 Q 1113.8 311.8 1109.5 309 L 1109 311.5 L 1115 323.5 L 1118 335.5 L 1118 353.5 L 1119 354.5 L 1119 404.5 L 1120 405.5 L 1120 479.5 L 1119 479.5 L 1116.5 474 L 1112.5 475 L 1110.5 472 L 1106.5 473 L 1105 466.5 L 1105 451.5 L 1104 450.5 L 1104 356.5 Q 1100.5 355 1102 348.5 L 1102 346.5 L 1098 330.5 Q 1092.9 317.6 1083.5 309 Q 1075.1 300.9 1063.5 296 L 1054.5 293 L 1040 290.5 L 1040.5 289 L 1049.5 289 L 1065.5 293 L 1085.5 305 L 1087.5 302 Q 1091.3 302.8 1092 300.5 L 1094.5 297 L 1096.5 297 Q 1100.3 297.8 1101 295.5 Q 1096.7 288.3 1088.5 285 L 1086.5 285 L 1067.5 276 L 1048.5 272 L 877.5 272 Q 877 277.5 872.5 279 L 871 279.5 L 873 280.5 L 872.5 282 L 870.5 282 L 865.5 287 L 784.5 289 Q 783 286.5 777.5 288 L 774.5 289 Q 773.2 286.7 768.5 288 L 766.5 288 Q 761 286.5 759.5 289 L 720.5 289 L 719.5 288 L 704.5 288 L 703.5 289 L 672.5 289 L 671.5 288 L 648.5 288 L 646.5 288 L 641.5 289 L 640.5 288 L 632.5 288 L 630.5 288 Q 624.3 286.3 622.5 289 L 617.5 288 L 614.5 289 L 612.5 289 L 505.5 288 L 503.5 288 L 397.5 288 L 396.5 287 L 387.5 287 L 384 284.5 L 387 282.5 L 388 279.5 L 385 275.5 L 386 272.5 L 231.5 272 L 207.5 278 L 197 284.5 L 196.5 286 L 194 286.5 L 193.5 288 L 191 288.5 L 189 291.5 L 192.5 292 L 195 290.5 L 195.5 289 L 198 289.5 L 201 300.5 L 195 305.5 L 194.5 307 L 193 307.5 Q 180 321.4 175 343.5 L 174.5 472 L 165.5 467 L 160.5 466 L 159 469.5 L 159 577.5 L 160 578.5 L 160 605.5 L 161 606.5 L 161 615.5 L 163 624.5 L 163 626.5 L 169 642.5 L 176 654.5 L 191.5 671 L 213.5 684 L 232.5 688 L 1049.5 688 L 1074 681.5 L 1074.5 680 L 1078 679.5 L 1078.5 678 L 1086 673.5 L 1086.5 672 L 1102 657.5 L 1110 644.5 L 1115 629.5 L 1118 626.5 L 1119.5 619 L 1120 623.5 Q 1117 627 1117.5 634 L 1116 634.5 L 1115.5 640 L 1114 640.5 L 1113.5 644 L 1112 644.5 L 1109.5 652 L 1108 652.5 L 1107 654.5 L 1107.5 656 L 1105.5 656 L 1104 656.5 L 1103.5 660 L 1102 660.5 L 1101.5 662 L 1100 662.5 L 1095.5 669 L 1094 668.5 L 1093.5 670 L 1092 670.5 L 1091.5 672 L 1082 678.5 L 1081.5 680 L 1078 680.5 L 1077.5 682 L 1055.5 690 L 1030.5 692 L 1026.5 691 L 1025.5 692 L 700.5 692 L 700.5 691 L 704 690.5 L 684.5 690 L 684.5 691 L 692 691.5 L 677.5 692 L 672.5 691 L 668.5 692 L 668.5 691 L 672 690.5 L 640.5 690 L 640.5 691 L 645 691.5 L 634.5 692 L 632.5 691 L 631.5 692 L 440.5 692 L 432.5 690 L 431.5 692 Q 429.8 689.2 424.5 690 Q 422.8 692.8 416.5 691 L 415.5 690 L 402.5 690 L 399.5 692 L 368.5 692 L 367.5 690 L 352 690.5 L 351.5 692 L 240.5 692 L 239.5 691 L 224 689.5 L 223.5 688 L 214 687.5 L 213.5 686 L 210.5 686 L 201.5 681 L 200 681.5 L 199.5 680 L 198 679.5 L 197.5 678 L 192 675.5 L 191.5 674 L 180 665.5 L 177.5 660 L 176 659.5 L 171.5 652 L 170 651.5 L 162 634.5 L 161.5 630 L 160 629.5 L 160 627.5 Q 161 621.5 158 619.5 L 157 598.5 L 156 597.5 L 156 544.5 L 154 540.5 L 154 414.5 L 155 413.5 L 155 400.5 L 156 399.5 L 156 348.5 L 158 340.5 L 158 330.5 Q 161 328.5 160 322.5 L 162 320.5 L 162 317.5 L 166 311.5 L 166.5 308 L 168 307.5 L 170.5 302 L 172 301.5 L 172.5 298 L 176 296.5 L 176.5 294 L 178 293.5 L 178.5 292 L 180 291.5 L 180.5 290 L 182 289.5 L 182.5 288 L 186 286.5 L 186.5 284 L 188.5 284 L 193 281.5 L 192.5 280 L 195.5 280 L 204 275.5 L 204.5 274 Q 209.5 275 210.5 272 L 215.5 272 L 224.5 268 Z " /><path fill="rgb(229,183,105)" stroke="rgb(229,183,105)" stroke-width="1" opacity="0.996078431372549" d="M 233.5 289 L 271.5 289 L 278 290.5 L 237.5 291 L 218.5 295 L 206.5 301 L 206 299.5 L 209.5 296 L 218.5 292 L 233.5 289 Z " /><path fill="rgb(229,183,105)" stroke="rgb(229,183,105)" stroke-width="1" opacity="0.996078431372549" d="M 1121.5 338 L 1122 347.5 L 1121 347.5 L 1121.5 338 Z " /><path fill="rgb(229,183,105)" stroke="rgb(229,183,105)" stroke-width="1" opacity="0.996078431372549" d="M 664.5 354 L 729.5 354 L 733 356.5 Q 735.7 358.8 735 364.5 L 734 367.5 L 737 374.5 L 726 379.5 L 728 380.5 L 736 407.5 L 735 412.5 L 741 432.5 L 740 434.5 L 740.5 436 L 735.5 432 L 722.5 432 L 714 436.5 Q 713.3 443.2 716 446.5 L 716 448.5 L 714.5 451 L 682 450.5 L 683.5 448 L 685.5 447 L 687.5 447 L 712.5 448 L 713 445.5 L 699 398.5 L 697.5 389 L 696 390.5 L 696 394.5 L 689 419.5 L 689 423.5 L 687 427.5 L 687 431.5 L 684 436.5 L 685 439.5 L 683.5 442 L 683 440.5 L 683.5 439 L 677 438.5 L 676.5 437 L 671.5 440 L 667.5 437 L 665.5 438 L 660.5 435 L 661 436.5 L 659 439.5 L 659 441.5 L 651 470.5 L 644.5 487 L 644 484.5 L 663 415.5 L 666 400.5 L 671 383.5 L 674 379.5 L 662 376.5 L 663 358.5 L 664.5 354 Z " /><path fill="rgb(229,183,105)" stroke="rgb(229,183,105)" stroke-width="1" opacity="0.996078431372549" d="M 399.5 355 L 475.5 355 L 490.5 360 L 504 371.5 L 512 387.5 L 513 392.5 L 513 407.5 L 511 408.5 L 509 423.5 L 505 434.5 L 495.5 446 L 481.5 455 L 472.5 457 L 470.5 457 L 468.5 458 L 443.5 458 Q 442.2 455.8 441 458.5 L 442 462.5 L 439.5 469 L 434.5 466 L 433.5 468 L 430 467.5 L 429.5 466 L 427.5 467 L 423.5 466 L 416 470.5 L 415 482.5 L 416 485.5 Q 413.5 487 415 492.5 L 413.5 494 L 404 499.5 Q 405.8 512.3 400.5 518 L 400 514.5 L 401 513.5 L 401.5 496 L 412 491.5 L 411.5 383 L 400.5 380 L 399 380.5 L 399.5 355 Z M 443 381 L 442 384 L 444 384 L 444 425 L 442 425 L 443 433 L 444 432 L 460 432 L 471 427 L 472 425 L 474 424 L 478 414 L 478 399 L 472 386 L 466 381 L 443 381 Z " /><path fill="rgb(229,183,105)" stroke="rgb(229,183,105)" stroke-width="1" opacity="0.996078431372549" d="M 525.5 355 L 580 355.5 L 578 358.5 L 578 375.5 L 579 377.5 L 566 382.5 L 566 447.5 L 563.5 456 L 562 455.5 L 561.5 457 L 551.5 454 Q 550.1 456.6 545.5 456 L 541 454.5 L 540.5 453 L 539 453.5 L 538 456.5 L 538 493.5 L 536.5 495 Q 529.9 495.4 527 499.5 L 527 515.5 L 524.5 518 L 524 495.5 L 535 491.5 L 534.5 383 L 525 378.5 L 525.5 355 Z " /><path fill="rgb(229,183,105)" stroke="rgb(229,183,105)" stroke-width="1" opacity="0.996078431372549" d="M 766.5 355 L 821 355.5 Q 817 359 819 368.5 Q 821.5 370 820 375.5 L 811 378.5 L 834.5 422 L 849 389.5 L 855 379.5 L 843 376.5 L 843.5 355 L 896 355.5 L 894 357.5 L 894 374.5 L 895.5 377 L 883.5 379 L 881 381.5 L 873 399.5 L 856.5 430 L 853.5 429 L 851.5 430 L 850 424.5 L 847.5 422 L 844.5 423 L 842 421.5 L 841.5 420 L 840 420.5 Q 841.3 425.8 838.5 427 L 837 427.5 L 836.5 429 L 834.5 430 L 832.5 427 L 831.5 428 L 820.5 429 L 814.5 427 L 812.5 431 L 810.5 432 L 809.5 430 L 808 432.5 L 809 434.5 L 807.5 435 L 804 431.5 L 781 390.5 L 772.5 379 L 766 377.5 L 766.5 355 Z " /><path fill="rgb(229,183,105)" stroke="rgb(229,183,105)" stroke-width="1" opacity="0.996078431372549" d="M 1122.5 357 L 1123 373.5 L 1124 375.5 L 1122.5 376 L 1122.5 357 Z " /><path fill="rgb(229,183,105)" stroke="rgb(229,183,105)" stroke-width="1" opacity="0.996078431372549" d="M 1123.5 388 L 1124 415.5 L 1123 415.5 L 1123.5 388 Z " /><path fill="rgb(229,183,105)" stroke="rgb(229,183,105)" stroke-width="1" opacity="0.996078431372549" d="M 1124.5 430 L 1125 518.5 L 1124 518.5 L 1124.5 430 Z " /><path fill="rgb(229,183,105)" stroke="rgb(229,183,105)" stroke-width="1" opacity="0.996078431372549" d="M 851.5 435 L 853 437.5 L 850.5 441 L 850 438.5 L 851.5 435 Z " /><path fill="rgb(229,183,105)" stroke="rgb(229,183,105)" stroke-width="1" opacity="0.996078431372549" d="M 808.5 438 L 814 441.5 L 816.5 446 L 818 446.5 L 819 448.5 L 818 451.5 L 818 492.5 L 816.5 494 Q 810.8 494.3 808 497.5 L 807 499.5 L 807 511.5 L 806 515.5 L 803.5 518 L 803 515.5 L 804 514.5 L 804 496.5 L 805.5 495 L 816 490.5 L 816 449.5 L 808.5 438 Z " /><path fill="rgb(229,183,105)" stroke="rgb(229,183,105)" stroke-width="1" opacity="0.996078431372549" d="M 603.5 468 L 621 469.5 L 619.5 472 L 605 472.5 L 598 491.5 L 595.5 495 L 566 494.5 L 568.5 492 L 593.5 492 L 595 490.5 L 603.5 468 Z " /><path fill="rgb(229,183,105)" stroke="rgb(229,183,105)" stroke-width="1" opacity="0.996078431372549" d="M 723.5 472 L 729 493.5 L 720.5 496 L 716 500.5 L 715.5 502 L 714 502.5 L 715 504.5 L 715 516.5 L 712.5 517 L 713 515.5 Q 711.4 502.4 715.5 495 L 726 491.5 L 722 477.5 L 722 473.5 L 723.5 472 Z " /><path fill="rgb(229,183,105)" stroke="rgb(229,183,105)" stroke-width="1" opacity="0.996078431372549" d="M 643.5 488 L 645 488.5 Q 645.6 493.6 642.5 495 Q 635 495 632 499.5 L 632 513.5 L 629.5 518 L 629 495.5 L 643 491.5 L 643.5 488 Z " /><path fill="rgb(229,183,105)" stroke="rgb(229,183,105)" stroke-width="1" opacity="0.996078431372549" d="M 443.5 492 L 455 496.5 L 454.5 501 L 443 494.5 L 443.5 492 Z " /><path fill="rgb(229,183,105)" stroke="rgb(229,183,105)" stroke-width="1" opacity="0.996078431372549" d="M 673.5 492 L 686 496.5 L 685.5 501 L 673 493.5 L 673.5 492 Z " /><path fill="rgb(229,183,105)" stroke="rgb(229,183,105)" stroke-width="1" opacity="0.996078431372549" d="M 760.5 492 L 773 496.5 L 772.5 501 L 760 493.5 L 760.5 492 Z " /><path fill="rgb(229,183,105)" stroke="rgb(229,183,105)" stroke-width="1" opacity="0.996078431372549" d="M 847.5 492 L 859 496.5 L 858.5 502 L 847 493.5 L 847.5 492 Z " /><path fill="rgb(229,183,105)" stroke="rgb(229,183,105)" stroke-width="1" opacity="0.996078431372549" d="M 1102.5 499 L 1104 499.5 L 1103.5 547 L 1102 543.5 L 1102.5 499 Z " /><path fill="rgb(229,183,105)" stroke="rgb(229,183,105)" stroke-width="1" opacity="0.996078431372549" d="M 1123.5 542 L 1124 565.5 L 1123 565.5 L 1123.5 542 Z " /><path fill="rgb(229,183,105)" stroke="rgb(229,183,105)" stroke-width="1" opacity="0.996078431372549" d="M 443.5 567 L 452.5 569 L 461 576.5 L 465 586.5 L 465 596.5 L 460.5 606 L 461 604.5 L 460.5 602 L 454 604.5 L 451.5 608 L 450 608.5 L 449.5 610 L 447.5 610 L 445.5 611 Q 444 608.5 438.5 610 L 432.5 604 L 431.5 605 L 428.5 602 L 426 602.5 L 429 608.5 L 427 607.5 Q 421.7 601.3 422 589.5 L 426 576.5 L 431.5 571 L 437.5 568 Q 442.3 569.3 443.5 567 Z M 440 575 L 435 580 L 432 589 L 433 601 L 436 607 L 441 609 L 450 608 L 454 603 L 456 592 L 452 579 Q 449 573 440 575 Z " /><path fill="rgb(229,183,105)" stroke="rgb(229,183,105)" stroke-width="1" opacity="0.996078431372549" d="M 490.5 567 Q 503.5 568 509 576.5 L 511 580.5 L 513 591.5 Q 510.2 593.2 512 599.5 L 509.5 603 L 508 602.5 L 509 605.5 L 506.5 604 L 502.5 602 Q 502 607.5 497.5 609 L 492.5 611 Q 491.3 608.8 486.5 610 L 483 607.5 L 479.5 603 L 476 604.5 L 475 606.5 L 477.5 610 Q 471.5 606 470 597.5 L 470 586.5 Q 471.9 574.9 480.5 570 L 490.5 567 Z M 488 575 L 486 576 L 480 585 Q 478 600 484 607 L 489 609 Q 496 610 499 607 L 503 598 Q 505 585 500 580 Q 498 573 488 575 Z " /><path fill="rgb(229,183,105)" stroke="rgb(229,183,105)" stroke-width="1" opacity="0.996078431372549" d="M 531.5 567 L 539.5 569 L 544 573.5 L 545 577.5 L 538.5 579 L 535.5 575 L 530.5 574 L 527 576.5 Q 525.5 583.5 529.5 585 Q 539.6 587.4 545 594.5 L 546 604.5 L 543.5 608 L 540.5 607 Q 537.7 612.2 528.5 611 L 523.5 607 L 521.5 607 L 520 609.5 L 523.5 614 Q 517.4 611.6 517 603.5 L 523.5 602 L 526.5 608 L 532.5 610 L 538 606.5 L 538 601.5 L 533.5 597 Q 525.3 595.2 521 589.5 L 519 586.5 L 518 580.5 L 522.5 571 L 531.5 567 Z " /><path fill="rgb(229,183,105)" stroke="rgb(229,183,105)" stroke-width="1" opacity="0.996078431372549" d="M 658.5 567 Q 671.1 567.9 676 576.5 L 680 587.5 L 680 594.5 L 675.5 606 L 674.5 603 Q 669 602 668 605.5 L 665.5 609 L 660.5 611 Q 659.2 608.8 654.5 610 L 650.5 607 L 649 607.5 L 650 605.5 Q 649.3 602.3 644.5 603 L 642.5 607 Q 635.6 600.4 638 584.5 Q 640.5 576 646.5 571 L 652.5 568 Q 657.3 569.3 658.5 567 Z M 659 574 L 655 575 L 650 580 L 647 590 Q 647 599 650 605 L 656 609 Q 663 610 666 607 L 669 603 L 670 599 L 670 585 L 667 579 L 665 576 L 659 574 Z " /><path fill="rgb(229,183,105)" stroke="rgb(229,183,105)" stroke-width="1" opacity="0.996078431372549" d="M 350.5 568 Q 365.9 565.6 371 573.5 L 374 578.5 L 367.5 582 L 362.5 576 Q 359.3 573.7 352.5 575 Q 343.5 580.5 345 596.5 Q 346.2 604.3 351.5 608 L 360.5 609 L 366 604.5 L 367.5 601 L 374 603.5 L 374 605.5 L 368.5 612 L 366.5 613 L 367.5 611 L 369 610.5 Q 368.3 608.3 364.5 609 L 360.5 611 L 358.5 610 L 356.5 610 L 353.5 611 L 348 607.5 L 344.5 603 L 339.5 606 L 336 599.5 L 335 590.5 L 337 581.5 L 342.5 573 L 350.5 568 Z " /><path fill="rgb(229,183,105)" stroke="rgb(229,183,105)" stroke-width="1" opacity="0.996078431372549" d="M 380.5 568 L 390 568.5 L 390.5 588 L 406 587.5 L 406.5 568 L 416 568.5 L 415.5 605 L 412.5 602 L 410.5 602 L 408.5 603 L 406.5 595 L 390 595.5 L 389.5 605 L 388.5 603 L 384.5 602 L 382 604.5 L 380.5 616 L 380.5 568 Z " /><path fill="rgb(229,183,105)" stroke="rgb(229,183,105)" stroke-width="1" opacity="0.996078431372549" d="M 553.5 568 L 579 568.5 L 578.5 575 L 562 575.5 L 562 587.5 L 563.5 589 L 564.5 588 L 576.5 588 L 577 594.5 L 562 595.5 L 561.5 607 L 560.5 605 L 555.5 604 L 554 605.5 L 553.5 616 L 553.5 568 Z " /><path fill="rgb(229,183,105)" stroke="rgb(229,183,105)" stroke-width="1" opacity="0.996078431372549" d="M 603.5 568 L 612 568.5 L 620.5 589 L 629.5 568 L 637 568.5 L 626 590.5 L 623.5 601 L 616 599.5 L 615 594.5 L 603 570.5 L 603.5 568 Z " /><path fill="rgb(229,183,105)" stroke="rgb(229,183,105)" stroke-width="1" opacity="0.996078431372549" d="M 686.5 568 L 695 568.5 L 695 602.5 L 698.5 608 L 704.5 610 L 711 606.5 L 713 601.5 L 713.5 568 L 720 568.5 L 720 603.5 L 718.5 606 L 717.5 603 L 715.5 603 L 708.5 610 L 701.5 611 L 696 607.5 L 695.5 605 L 692.5 606 L 689 603.5 L 688.5 605 L 687 604.5 L 686 600.5 L 686.5 568 Z " /><path fill="rgb(229,183,105)" stroke="rgb(229,183,105)" stroke-width="1" opacity="0.996078431372549" d="M 730.5 568 L 748.5 568 L 755 571.5 Q 759.5 575 758 584.5 L 754.5 591 L 748 594.5 L 759 610.5 L 756 608.5 L 755.5 607 L 753.5 608 L 751.5 608 L 750 608.5 L 751 610.5 L 748 608.5 Q 745.6 599.9 739.5 595 L 738.5 608 Q 739.4 602.6 736.5 601 L 731 602.5 L 730.5 616 L 730.5 568 Z M 740 575 L 740 589 L 747 588 L 749 585 L 748 577 Q 746 574 740 575 Z " /><path fill="rgb(229,183,105)" stroke="rgb(229,183,105)" stroke-width="1" opacity="0.996078431372549" d="M 801.5 568 Q 816.5 565.5 821 573.5 L 824 578.5 L 817.5 581 L 813.5 576 L 806.5 574 Q 800.8 575.3 798 579.5 Q 793.6 585.6 795 597.5 L 800.5 607 Q 803.8 610.2 811.5 609 L 817 605.5 L 816.5 597 L 808 596.5 L 808.5 591 L 825 591.5 L 824.5 607 L 822.5 604 L 819 604.5 L 816.5 608 L 813.5 610 L 802.5 610 L 791.5 603 L 790 605.5 L 792 608.5 L 791 608.5 Q 784 601 786 584.5 L 792.5 573 L 801.5 568 Z " /><path fill="rgb(229,183,105)" stroke="rgb(229,183,105)" stroke-width="1" opacity="0.996078431372549" d="M 842.5 568 L 853 568.5 L 863 607.5 L 862 607.5 Q 862.5 603.5 859.5 603 L 854.5 604 L 852.5 602 Q 851 605.5 849.5 603 L 846.5 602 Q 845.3 604.2 840.5 603 L 836.5 601 L 834.5 605 L 832 605.5 L 833 607.5 L 830 610.5 L 828.5 616 L 828 614.5 L 842.5 568 Z M 847 576 L 842 596 Q 840 597 843 598 L 852 598 L 848 578 L 847 576 Z " /><path fill="rgb(229,183,105)" stroke="rgb(229,183,105)" stroke-width="1" opacity="0.996078431372549" d="M 871.5 568 L 883 568.5 L 891.5 605 L 898 577.5 L 901.5 568 L 912 568.5 L 913 611.5 L 912 611.5 Q 913.3 606.3 910.5 605 L 906 605.5 L 904.5 612 L 903.5 580 L 896.5 606 L 895 606.5 L 896 608.5 L 895 608.5 L 893.5 606 L 887 607.5 L 886.5 610 L 878.5 580 L 877.5 611 Q 877.7 605.3 874.5 603 L 873 603.5 L 874 609.5 L 871.5 616 L 871.5 568 Z " /><path fill="rgb(229,183,105)" stroke="rgb(229,183,105)" stroke-width="1" opacity="0.996078431372549" d="M 921.5 568 L 947 568.5 L 946.5 575 L 930 575.5 L 930.5 588 L 943.5 588 L 945 589.5 L 944.5 595 L 930 595.5 L 929.5 603 L 924.5 600 L 922 602.5 L 921.5 616 L 921.5 568 Z " /><path fill="rgb(229,183,105)" stroke="rgb(229,183,105)" stroke-width="1" opacity="0.996078431372549" d="M 1122.5 578 L 1123 591.5 L 1122 591.5 L 1122.5 578 Z " /><path fill="rgb(229,183,105)" stroke="rgb(229,183,105)" stroke-width="1" opacity="0.996078431372549" d="M 1121.5 600 L 1122 609.5 L 1121 609.5 L 1121.5 600 Z " /><path fill="rgb(229,183,105)" stroke="rgb(229,183,105)" stroke-width="1" opacity="0.996078431372549" d="M 1103.5 605 L 1104 612.5 Q 1101.3 614.3 1103 620.5 L 1100 629.5 L 1095 639.5 L 1086.5 650 Q 1072 665 1047.5 670 L 689.5 670 L 683.5 674 L 678.5 675 L 639.5 676 L 638.5 675 L 614.5 675 L 608.5 671 L 603.5 670 L 231.5 670 Q 205.2 664.8 191 647.5 L 181 632.5 L 177 621.5 L 176 611.5 L 177.5 611 Q 183 640.5 203.5 655 Q 214.9 664.1 232.5 667 L 774.5 668 L 776.5 668 L 778.5 667 L 823.5 667 L 824.5 668 L 954.5 668 L 955.5 667 L 1047.5 667 Q 1074 661.5 1088 643.5 L 1098 626.5 L 1101 617.5 L 1102 606.5 L 1103.5 605 Z " /><path fill="rgb(229,183,105)" stroke="rgb(229,183,105)" stroke-width="1" opacity="0.996078431372549" d="M 560.5 608 L 561.5 609 L 580 609.5 L 579.5 611 L 577.5 610 L 561.5 610 L 560.5 608 Z " /><path fill="rgb(229,183,105)" stroke="rgb(229,183,105)" stroke-width="1" opacity="0.996078431372549" d="M 930.5 609 L 948 609.5 Q 946.7 612.3 945.5 610 L 930.5 610 L 930.5 609 Z " /><path fill="rgb(229,183,105)" stroke="rgb(229,183,105)" stroke-width="1" opacity="0.996078431372549" d="M 648.5 691 L 664 691.5 L 648.5 692 L 648.5 691 Z " /></svg>