<svg viewBox="0 0 363 194" version="1.1" xmlns="http://www.w3.org/2000/svg" desc="Created with imagetracer.js version 1.2.6" ><path fill="rgb(69,66,61)" stroke="rgb(69,66,61)" stroke-width="1" opacity="1" d="M 184.5 7 L 214.5 11 L 232.5 17 Q 250.6 24.9 263 38.5 L 263 41.5 L 255 52.5 L 256 54.5 L 253 61.5 L 253 66.5 L 255.5 72 L 290.5 51 L 294.5 51 L 297 55.5 L 258 81.5 Q 261.1 89.9 260 102.5 L 254 127.5 L 258.5 140 L 282.5 153 L 289 158.5 L 286.5 165 L 281.5 166 L 257 150.5 L 258.5 151 L 280.5 164 L 284.5 164 Q 287.8 163.3 287 158.5 L 283.5 156 L 285 158.5 L 284.5 161 L 283 160.5 L 282.5 158 L 279.5 158 L 258.5 147 L 253 142.5 L 254 140.5 L 252.5 138 L 256 136.5 L 252.5 127 L 251.5 130 L 251 126.5 Q 259.6 113.6 257 89.5 L 255.5 83 L 219 106.5 L 220 110.5 L 220 112.5 L 222.5 121 L 242 132.5 L 240 133.5 Q 246.5 134 249 138.5 Q 252.3 149.2 260 155.5 L 260 159.5 Q 244.4 172.4 222.5 179 Q 205.8 184.3 184 184.5 L 183.5 186 L 182 185.5 L 181.5 184 L 177 183.5 L 177.5 182 Q 182.5 181 183.5 184 L 185.5 182 Q 210.9 181.4 229.5 174 Q 245.8 169.3 256 158.5 L 255 156.5 L 256.5 156 L 257.5 160 L 259 156.5 L 253 150.5 L 245.5 137 L 242.5 137 L 226.5 146 L 206.5 152 Q 191.9 155.4 172.5 154 L 149.5 149 L 125.5 137 L 122.5 137 L 116 150.5 L 109 158.5 L 111.5 159 Q 121.7 167.8 135.5 173 Q 153.6 179.9 176 182.5 L 175.5 184 Q 132.8 180.7 108 159.5 L 109 155.5 L 107.5 155 L 85.5 168 L 81 164.5 L 80 161.5 L 82.5 157 L 112 139.5 Q 110.8 130.3 115 126.5 L 109 109.5 L 108 94.5 L 110 83.5 L 72 59.5 L 71 57.5 L 72.5 55 L 76.5 54 L 112.5 74 L 116 64.5 Q 112.1 61.9 113 54.5 Q 115.5 53 112 51.5 L 104 39.5 L 110 34.5 L 110.5 33 Q 123.8 21.8 141.5 15 L 164.5 9 L 184.5 7 Z M 183 9 Q 136 13 110 36 L 106 41 L 121 59 L 149 43 L 175 37 Q 222 35 245 58 L 247 57 L 246 59 L 248 59 L 262 40 L 259 36 L 258 37 L 255 36 L 257 35 Q 230 11 183 9 Z M 178 39 L 182 42 L 191 40 L 178 39 Z M 172 40 L 166 44 L 162 50 L 158 65 L 159 66 L 167 63 L 180 61 Q 195 60 205 64 L 208 64 L 202 45 L 196 41 L 188 42 L 190 42 L 190 45 L 198 51 L 198 52 L 193 50 L 188 42 L 185 43 Q 178 44 177 40 L 172 40 Z M 201 40 Q 207 48 210 62 L 224 54 L 234 55 L 236 55 Q 222 44 201 40 Z M 163 41 L 143 48 L 122 61 L 119 60 L 117 58 L 114 56 L 118 66 L 114 76 L 129 84 L 130 84 L 125 72 L 127 62 L 132 58 L 143 59 L 156 66 L 161 48 L 166 42 L 163 41 Z M 293 52 L 293 56 L 295 56 L 295 54 L 293 52 Z M 254 54 L 249 60 L 241 57 L 239 58 L 242 64 Q 244 75 239 81 L 238 83 L 253 74 L 250 66 L 254 57 L 254 54 Z M 289 54 L 288 56 L 290 55 L 289 54 Z M 227 55 L 198 71 L 179 74 Q 165 74 156 70 L 135 59 L 130 61 L 127 66 Q 126 77 131 83 Q 137 91 149 95 L 150 81 Q 151 77 157 78 L 158 82 L 155 91 L 154 90 L 154 88 L 153 85 L 151 92 L 154 93 L 154 95 L 153 95 L 151 101 L 152 109 L 150 112 L 156 124 L 170 135 L 170 136 L 165 133 L 163 138 L 165 147 L 165 148 L 163 145 L 157 141 L 154 145 L 147 134 L 148 124 L 148 118 L 143 131 L 143 142 L 142 129 L 128 134 L 126 134 L 144 123 L 149 111 L 149 107 L 113 85 L 111 90 Q 109 115 118 129 L 117 132 L 116 129 L 113 136 L 116 141 L 117 139 L 117 142 L 116 142 L 115 144 L 106 151 L 87 160 L 86 163 L 84 162 L 87 158 L 86 157 Q 81 158 82 164 L 86 166 L 110 152 L 111 154 Q 117 148 120 138 L 125 135 Q 146 151 183 152 L 183 151 L 176 149 L 177 147 L 182 149 L 183 146 L 182 145 L 181 144 L 183 144 L 182 139 L 184 139 L 185 135 L 185 139 L 187 138 L 188 139 L 186 140 L 185 144 L 188 145 L 186 145 L 185 149 L 189 150 L 184 151 L 187 152 L 196 152 L 216 148 L 241 137 L 241 136 L 240 136 L 239 135 L 226 129 L 224 130 L 227 138 L 226 142 L 225 135 L 220 121 L 218 120 L 219 123 L 219 129 L 217 122 L 216 121 L 215 123 Q 206 132 192 136 L 190 136 L 192 135 L 201 124 L 200 123 L 194 130 L 193 127 L 189 128 L 185 133 L 182 130 L 180 128 L 176 129 L 168 123 L 164 118 L 163 120 L 155 107 L 156 92 L 157 92 L 156 95 Q 154 109 160 116 L 162 117 L 161 114 L 161 112 L 163 116 L 165 116 L 169 107 L 171 106 L 166 116 L 167 120 L 171 122 L 182 115 L 183 111 L 179 109 Q 174 107 176 100 L 182 97 L 192 99 L 192 101 L 190 99 Q 179 96 177 102 L 178 103 L 181 102 L 182 105 L 178 108 L 183 108 L 184 106 L 185 109 L 189 108 L 186 104 L 191 102 L 192 107 Q 191 111 185 110 L 184 114 L 194 120 L 199 121 L 201 117 L 199 116 L 201 115 L 198 109 L 199 106 L 198 108 L 203 114 Q 204 120 201 123 L 212 114 L 211 119 L 206 127 L 208 127 Q 216 122 218 111 L 215 95 L 217 89 Q 214 87 218 86 L 217 83 L 216 86 L 214 83 L 213 90 L 211 78 L 216 76 L 219 80 L 220 86 L 219 92 L 220 94 L 232 87 Q 238 81 241 71 L 239 61 Q 236 55 227 55 Z M 237 55 L 238 57 L 239 57 L 237 55 Z M 74 56 L 74 59 L 75 57 L 74 56 Z M 286 56 L 285 58 L 287 57 L 286 56 Z M 291 56 L 269 71 L 266 71 L 256 77 L 255 80 L 239 90 L 238 92 L 293 57 L 291 56 Z M 78 57 L 80 59 L 81 59 L 78 57 Z M 283 58 L 283 59 L 284 59 L 283 58 Z M 75 59 L 76 61 L 118 86 L 119 86 L 114 82 L 113 80 L 75 59 Z M 82 59 L 82 60 L 83 60 L 82 59 Z M 281 59 L 281 60 L 282 60 L 281 59 Z M 84 60 L 84 61 L 85 61 L 84 60 Z M 279 60 L 279 61 L 280 61 L 279 60 Z M 86 61 L 87 63 L 88 63 L 86 61 Z M 185 62 L 184 64 L 186 65 L 184 68 L 187 68 L 188 65 L 185 62 Z M 276 62 L 276 63 L 277 63 L 276 62 Z M 89 63 L 89 64 L 90 64 L 89 63 Z M 173 63 L 165 66 L 167 67 L 166 70 L 170 70 L 171 72 L 191 71 L 171 70 L 176 69 L 175 65 L 177 64 L 176 66 L 178 69 L 184 69 L 180 67 L 182 66 L 181 65 L 181 64 L 173 63 Z M 190 63 L 189 68 L 198 69 L 200 64 L 190 63 Z M 274 63 L 273 65 L 275 64 L 274 63 Z M 91 64 L 91 65 L 92 65 L 91 64 Z M 202 64 L 203 66 L 204 66 L 202 64 Z M 93 65 L 94 67 L 95 67 L 93 65 Z M 271 65 L 271 66 L 272 66 L 271 65 Z M 269 66 L 268 68 L 270 67 L 269 66 Z M 96 67 L 96 68 L 97 68 L 96 67 Z M 160 67 L 157 69 L 163 70 L 165 67 L 163 68 L 160 67 Z M 98 68 L 98 69 L 99 69 L 98 68 Z M 266 68 L 263 70 L 263 71 L 267 69 L 266 68 Z M 101 70 L 101 71 L 102 71 L 101 70 Z M 103 71 L 106 74 L 107 74 L 103 71 Z M 261 71 L 260 73 L 262 72 L 261 71 Z M 258 73 L 254 75 L 254 76 L 259 74 L 258 73 Z M 108 74 L 109 76 L 117 80 L 118 80 L 108 74 Z M 251 77 L 251 78 L 252 78 L 251 77 Z M 249 78 L 249 79 L 250 79 L 249 78 Z M 119 80 L 119 81 L 120 81 L 119 80 Z M 214 80 L 213 82 L 214 82 L 214 80 Z M 246 80 L 246 81 L 247 81 L 246 80 Z M 121 81 L 121 82 L 122 82 L 121 81 Z M 157 81 L 155 84 L 157 83 L 157 81 Z M 244 81 L 244 82 L 245 82 L 244 81 Z M 123 82 L 124 84 L 125 84 L 123 82 Z M 241 83 L 241 84 L 242 84 L 241 83 Z M 126 84 L 126 85 L 127 85 L 126 84 Z M 239 84 L 239 85 L 240 85 L 239 84 Z M 128 85 L 129 87 L 130 87 L 128 85 Z M 237 85 L 236 87 L 238 86 L 237 85 Z M 120 86 L 123 89 L 124 89 L 120 86 Z M 111 87 L 110 89 L 111 89 L 111 87 Z M 131 87 L 131 88 L 132 88 L 131 87 Z M 234 87 L 233 89 L 235 88 L 234 87 Z M 133 88 L 136 91 L 137 91 L 133 88 Z M 125 89 L 126 91 L 127 91 L 125 89 Z M 231 89 L 231 90 L 232 90 L 231 89 Z M 128 91 L 128 92 L 129 92 L 128 91 Z M 228 91 L 228 92 L 229 92 L 228 91 Z M 139 92 L 139 93 L 140 93 L 139 92 Z M 226 92 L 226 93 L 227 93 L 226 92 Z M 236 92 L 235 94 L 237 93 L 236 92 Z M 131 93 L 131 94 L 132 94 L 131 93 Z M 141 93 L 141 94 L 142 94 L 141 93 Z M 133 94 L 133 95 L 134 95 L 133 94 Z M 143 94 L 144 96 L 145 96 L 143 94 Z M 223 94 L 223 95 L 224 95 L 223 94 Z M 233 94 L 231 95 L 229 98 L 234 95 L 233 94 Z M 135 95 L 136 97 L 137 97 L 135 95 Z M 221 95 L 220 97 L 222 96 L 221 95 Z M 146 96 L 146 97 L 147 97 L 146 96 Z M 138 97 L 138 98 L 139 98 L 138 97 Z M 148 97 L 148 98 L 149 98 L 148 97 Z M 140 98 L 140 99 L 141 99 L 140 98 Z M 227 98 L 225 99 L 224 101 L 228 99 L 227 98 Z M 143 100 L 143 101 L 144 101 L 143 100 Z M 145 101 L 150 105 L 150 104 L 145 101 Z M 222 101 L 220 104 L 223 102 L 222 101 Z M 178 105 L 177 107 L 178 107 L 178 105 Z M 219 115 L 218 117 L 219 117 L 219 115 Z M 149 116 L 148 118 L 149 118 L 149 116 Z M 184 116 L 175 123 L 176 124 L 191 124 L 193 123 L 192 121 L 184 116 Z M 151 118 L 148 127 Q 146 134 151 136 L 152 134 L 155 135 L 157 130 L 158 134 L 161 135 L 161 137 L 159 138 L 158 140 L 161 141 L 162 143 Q 161 136 164 133 L 160 129 L 151 118 Z M 207 120 L 204 122 L 199 128 L 200 129 L 202 126 L 204 125 L 200 130 L 201 131 L 208 121 L 207 120 Z M 223 123 L 225 125 L 226 125 L 223 123 Z M 143 125 L 142 127 L 144 126 L 143 125 Z M 229 126 L 229 127 L 230 127 L 229 126 Z M 140 127 L 140 128 L 141 128 L 140 127 Z M 231 127 L 231 128 L 232 128 L 231 127 Z M 199 129 L 197 132 L 199 131 L 199 129 Z M 235 130 L 235 131 L 236 131 L 235 130 Z M 237 131 L 237 132 L 238 132 L 237 131 Z M 239 132 L 239 133 L 240 133 L 239 132 Z M 152 136 L 152 139 L 154 138 L 152 136 Z M 157 136 Q 154 138 157 139 L 158 137 L 157 136 Z M 255 139 L 256 141 L 257 141 L 255 139 Z M 113 141 L 112 143 L 114 142 L 113 141 Z M 258 141 L 259 143 L 260 143 L 258 141 Z M 110 143 L 110 144 L 111 144 L 110 143 Z M 261 143 L 261 144 L 262 144 L 261 143 Z M 108 144 L 106 145 L 105 147 L 109 145 L 108 144 Z M 263 144 L 263 145 L 264 145 L 263 144 Z M 265 145 L 268 148 L 269 148 L 265 145 Z M 103 147 L 103 148 L 104 148 L 103 147 Z M 101 148 L 100 150 L 102 149 L 101 148 Z M 270 148 L 270 149 L 271 149 L 270 148 Z M 272 149 L 273 151 L 274 151 L 272 149 Z M 98 150 L 98 151 L 99 151 L 98 150 Z M 96 151 L 95 153 L 97 152 L 96 151 Z M 275 151 L 275 152 L 276 152 L 275 151 Z M 277 152 L 277 153 L 278 153 L 277 152 Z M 93 153 L 93 154 L 94 154 L 93 153 Z M 279 153 L 282 156 L 283 156 L 279 153 Z M 91 154 L 90 156 L 92 155 L 91 154 Z M 88 156 L 88 157 L 89 157 L 88 156 Z " /><path fill="rgb(69,66,61)" stroke="rgb(69,66,61)" stroke-width="1" opacity="1" d="M 169.5 14 Q 177.5 13 180 17.5 L 182 27.5 L 178.5 33 L 169.5 35 L 164 31.5 Q 160.8 28.2 162 20.5 L 165.5 16 L 169.5 14 Z M 171 18 L 168 23 L 170 30 L 173 31 Q 177 29 175 22 L 171 18 Z " /><path fill="rgb(69,66,61)" stroke="rgb(69,66,61)" stroke-width="1" opacity="1" d="M 194.5 14 Q 203.4 13.1 206 18.5 L 207 27.5 L 202.5 34 L 195.5 35 L 189 31.5 L 187 23.5 L 192.5 15 L 194.5 14 Z M 197 19 Q 192 21 194 29 L 198 31 L 201 26 L 200 20 L 197 19 Z " /><path fill="rgb(69,66,61)" stroke="rgb(69,66,61)" stroke-width="1" opacity="1" d="M 150.5 19 L 154 20.5 L 156 26.5 L 152.5 31 L 149 32.5 L 149.5 36 L 152 37.5 L 151.5 39 L 144.5 42 L 143 40.5 L 141 28.5 L 138.5 26 L 137 25.5 L 138.5 23 L 150.5 19 Z M 146 24 L 148 29 L 150 28 L 150 25 L 146 24 Z " /><path fill="rgb(69,66,61)" stroke="rgb(69,66,61)" stroke-width="1" opacity="1" d="M 216.5 19 Q 222.7 18.3 225 21.5 L 223.5 24 L 222 24.5 L 219 35.5 L 222.5 36 L 223.5 34 L 227 35.5 L 224.5 41 L 210 36.5 L 217 22.5 L 216.5 19 Z " /><path fill="rgb(69,66,61)" stroke="rgb(69,66,61)" stroke-width="1" opacity="1" d="M 245.5 37 L 247.5 42 L 249 42.5 L 245 44.5 L 244.5 46 L 243 45.5 L 242.5 44 L 239 43.5 L 241 40.5 L 240 38.5 L 241.5 38 L 243.5 39 L 245.5 37 Z " /><path fill="rgb(69,66,61)" stroke="rgb(69,66,61)" stroke-width="1" opacity="1" d="M 122.5 38 L 128 39.5 L 127 42.5 L 129 43.5 L 128.5 45 L 126.5 44 L 124.5 47 L 123 46.5 L 122.5 44 L 120 43.5 L 120.5 42 L 122 41.5 L 122.5 38 Z " /><path fill="rgb(69,66,61)" stroke="rgb(69,66,61)" stroke-width="1" opacity="1" d="M 109.5 39 L 110 40.5 L 108.5 41 L 109.5 39 Z " /><path fill="rgb(69,66,61)" stroke="rgb(69,66,61)" stroke-width="1" opacity="1" d="M 258.5 39 L 260 39.5 L 259.5 41 L 258 40.5 L 258.5 39 Z " /><path fill="rgb(69,66,61)" stroke="rgb(69,66,61)" stroke-width="1" opacity="1" d="M 176.5 45 L 176 46.5 L 171.5 52 L 162.5 56 L 163.5 54 Q 172.7 52.2 176.5 45 Z " /><path fill="rgb(69,66,61)" stroke="rgb(69,66,61)" stroke-width="1" opacity="1" d="M 172.5 76 L 178 76.5 L 176 77.5 Q 179.7 78.3 179 83.5 L 176.5 85 L 174 80.5 L 175 78.5 L 170 77.5 L 172.5 76 Z " /><path fill="rgb(69,66,61)" stroke="rgb(69,66,61)" stroke-width="1" opacity="1" d="M 202.5 76 L 209 79.5 L 211 85.5 L 210 92.5 L 212 92.5 L 214 102.5 L 204.5 118 L 204 116.5 L 206.5 111 L 209 109.5 L 211 103.5 L 210 103.5 L 208.5 107 L 207.5 105 L 206 105.5 L 205.5 107 L 204.5 104 L 201.5 108 Q 198.8 106.8 200 101.5 L 204 99.5 L 206.5 89 L 208 88.5 Q 205.3 83.2 198 82.5 L 198.5 81 L 202 80.5 L 193 77.5 L 198.5 77 L 202.5 79 L 202 77.5 L 202.5 76 Z " /><path fill="rgb(69,66,61)" stroke="rgb(69,66,61)" stroke-width="1" opacity="1" d="M 190.5 77 L 191.5 79 L 194 79.5 L 191.5 84 L 188.5 85 L 188 80.5 L 190.5 77 Z " /><path fill="rgb(69,66,61)" stroke="rgb(69,66,61)" stroke-width="1" opacity="1" d="M 167.5 81 L 169 81.5 L 162.5 86 L 162 84.5 L 167.5 81 Z " /><path fill="rgb(69,66,61)" stroke="rgb(69,66,61)" stroke-width="1" opacity="1" d="M 184.5 81 L 186 85.5 L 185 85.5 L 184.5 81 Z " /><path fill="rgb(69,66,61)" stroke="rgb(69,66,61)" stroke-width="1" opacity="1" d="M 181.5 82 L 182 85.5 L 173.5 97 L 175 94.5 L 181.5 82 Z " /><path fill="rgb(69,66,61)" stroke="rgb(69,66,61)" stroke-width="1" opacity="1" d="M 169.5 85 L 172 86.5 L 173 89.5 L 169.5 92 L 169.5 90 L 167.5 91 L 166 86.5 L 169.5 85 Z M 168 87 L 167 89 L 169 88 L 168 87 Z " /><path fill="rgb(69,66,61)" stroke="rgb(69,66,61)" stroke-width="1" opacity="1" d="M 197.5 85 L 202 87.5 L 202.5 89 L 204 88.5 L 200.5 95 Q 194.8 95.8 194 91.5 L 196.5 93 L 199.5 94 L 202 89.5 L 200 90.5 L 199.5 92 L 197 91.5 L 196.5 90 L 195 89.5 L 197.5 85 Z " /><path fill="rgb(69,66,61)" stroke="rgb(69,66,61)" stroke-width="1" opacity="1" d="M 186.5 87 L 191.5 93 L 188 90.5 L 186.5 87 Z " /><path fill="rgb(69,66,61)" stroke="rgb(69,66,61)" stroke-width="1" opacity="1" d="M 164.5 90 L 167.5 94 L 172.5 93 L 171.5 95 Q 165.3 96.3 164 92.5 L 164.5 90 Z " /><path fill="rgb(69,66,61)" stroke="rgb(69,66,61)" stroke-width="1" opacity="1" d="M 159.5 91 L 161 91.5 L 161 97.5 L 165.5 104 L 167.5 101 L 168 103.5 L 165.5 109 L 163.5 105 L 159 102.5 L 158 97.5 L 159.5 91 Z " /><path fill="rgb(69,66,61)" stroke="rgb(69,66,61)" stroke-width="1" opacity="1" d="M 245.5 92 L 247 92.5 L 246.5 109 L 245.5 106 L 244.5 109 L 244 94.5 L 245.5 92 Z " /><path fill="rgb(69,66,61)" stroke="rgb(69,66,61)" stroke-width="1" opacity="1" d="M 121.5 94 L 124 95.5 L 125 108.5 L 123 109.5 L 122.5 108 L 121.5 110 L 121.5 94 Z " /><path fill="rgb(69,66,61)" stroke="rgb(69,66,61)" stroke-width="1" opacity="1" d="M 192.5 94 L 198 103.5 L 197 103.5 L 192.5 94 Z " /><path fill="rgb(69,66,61)" stroke="rgb(69,66,61)" stroke-width="1" opacity="1" d="M 152.5 101 L 153 102.5 L 152 102.5 L 152.5 101 Z " /><path fill="rgb(69,66,61)" stroke="rgb(69,66,61)" stroke-width="1" opacity="1" d="M 169.5 112 L 171 112.5 L 168.5 114 L 169.5 112 Z " /><path fill="rgb(69,66,61)" stroke="rgb(69,66,61)" stroke-width="1" opacity="1" d="M 242.5 114 L 244.5 117 L 247 117.5 L 244.5 123 Q 243 119.5 241.5 122 L 239.5 123 L 239 121.5 L 240 119.5 L 238.5 117 L 242 116.5 L 242.5 114 Z " /><path fill="rgb(69,66,61)" stroke="rgb(69,66,61)" stroke-width="1" opacity="1" d="M 125.5 115 L 130 117.5 L 129.5 119 L 128 119.5 L 129 122.5 L 127.5 123 L 125.5 122 L 123.5 123 L 122.5 119 L 121 118.5 L 121.5 117 L 125.5 115 Z " /><path fill="rgb(69,66,61)" stroke="rgb(69,66,61)" stroke-width="1" opacity="1" d="M 169.5 116 L 171 116.5 L 169 117.5 L 169.5 116 Z " /><path fill="rgb(69,66,61)" stroke="rgb(69,66,61)" stroke-width="1" opacity="1" d="M 209.5 129 L 211 129.5 Q 210.3 134.3 213.5 135 L 218.5 134 L 219 135.5 Q 213.8 136.7 215 144.5 L 215.5 146 L 208.5 144 L 206 145.5 L 205.5 147 L 204 146.5 L 205 139.5 L 201 136.5 L 208 134.5 L 209.5 129 Z " /><path fill="rgb(69,66,61)" stroke="rgb(69,66,61)" stroke-width="1" opacity="1" d="M 220.5 137 L 221 140.5 L 219.5 144 L 219 141.5 L 220.5 137 Z " /><path fill="rgb(69,66,61)" stroke="rgb(69,66,61)" stroke-width="1" opacity="1" d="M 123.5 138 L 125 138.5 L 123.5 139 L 123.5 138 Z " /><path fill="rgb(69,66,61)" stroke="rgb(69,66,61)" stroke-width="1" opacity="1" d="M 243.5 138 L 245 138.5 L 243.5 139 L 243.5 138 Z " /><path fill="rgb(69,66,61)" stroke="rgb(69,66,61)" stroke-width="1" opacity="1" d="M 238.5 143 L 242 149.5 L 236.5 150 L 234.5 149 L 233 151.5 L 235.5 153 L 241.5 152 L 246 154.5 L 247 159.5 L 243.5 164 L 237 165.5 L 236.5 167 L 233.5 168 L 230 161.5 L 234.5 160 L 238.5 161 L 240 158.5 Q 230.6 159.9 227 155.5 L 228.5 148 L 236 145.5 L 236.5 144 L 238.5 143 Z " /><path fill="rgb(69,66,61)" stroke="rgb(69,66,61)" stroke-width="1" opacity="1" d="M 128.5 144 Q 137.5 145.5 142 151.5 L 143 159.5 L 139.5 165 L 132.5 167 L 120 160.5 L 121.5 158 L 124 157.5 Q 128.5 153 128.5 144 Z M 135 150 L 129 160 L 130 162 L 135 161 L 138 155 L 137 152 L 135 150 Z " /><path fill="rgb(69,66,61)" stroke="rgb(69,66,61)" stroke-width="1" opacity="1" d="M 217.5 152 L 220 153.5 L 221 158.5 L 217.5 160 L 211.5 158 L 209 163.5 L 212.5 169 L 215.5 170 L 218 166.5 L 215 165.5 L 215.5 163 L 223.5 161 L 224 163.5 L 224 165.5 L 225 170.5 L 216.5 174 L 209.5 174 L 205 170.5 Q 202 167.5 203 160.5 L 205.5 156 Q 208.5 153 215.5 154 L 217.5 152 Z " /><path fill="rgb(69,66,61)" stroke="rgb(69,66,61)" stroke-width="1" opacity="1" d="M 152.5 154 L 162 155.5 L 163.5 172 L 165 172.5 L 164.5 176 L 155.5 175 L 154 173.5 L 154.5 171 L 157 170.5 L 156.5 169 L 151.5 168 L 151 169.5 L 152 172.5 L 147.5 173 L 143 170.5 L 144.5 168 L 147 166.5 L 152 158.5 L 152.5 154 Z M 157 160 L 155 163 L 156 165 L 157 165 L 157 160 Z " /><path fill="rgb(69,66,61)" stroke="rgb(69,66,61)" stroke-width="1" opacity="1" d="M 169.5 157 L 178 157.5 L 177 165.5 L 178.5 170 L 182.5 157 L 187 157.5 L 190.5 169 L 192 161.5 L 190 160.5 L 190.5 157 L 199 157.5 L 192.5 177 L 186 176.5 L 183.5 168 L 180.5 177 L 174 176.5 L 170.5 161 L 169 160.5 L 169.5 157 Z " /><path fill="rgb(69,66,61)" stroke="rgb(69,66,61)" stroke-width="1" opacity="1" d="M 0.5 191 L 2.5 194 L 0 193.5 L 0.5 191 Z " /><path fill="rgb(69,66,61)" stroke="rgb(69,66,61)" stroke-width="1" opacity="1" d="M 362.5 192 L 363 193.5 L 361.5 194 L 362.5 192 Z " /></svg>